<svg width="428" height="268" viewBox="0 0 428 268" fill="none" xmlns="http://www.w3.org/2000/svg">
<path d="M338.273 74.4512C339.989 72.3661 327.854 67.5825 324.667 68.0732C321.48 68.5638 314.493 69.6677 316.577 69.4224C318.661 69.0544 323.809 70.2809 330.183 74.3285C332.88 76.0457 334.719 78.3761 334.719 78.3761L338.273 74.4512Z" fill="url(#paint0_linear_8_1753)"/>
<path d="M332.022 53.2318C333.615 50.9013 339.254 48.4482 339.254 48.4482L342.441 53.845C342.441 53.845 330.796 55.1942 328.835 60.8363L332.022 53.2318Z" fill="url(#paint1_linear_8_1753)"/>
<path d="M332.022 53.2314C330.306 56.5431 331.286 64.025 333.493 68.3179C335.576 72.6108 336.312 74.9413 338.273 74.328L334.841 78.253C333.493 79.7248 331.164 77.0264 329.325 71.7523C327.364 66.6008 328.712 57.8923 332.022 53.2314Z" fill="url(#paint2_linear_8_1753)"/>
<path d="M324.667 68.0732C319.764 68.8092 316.087 72.3661 314.371 74.9419C312.287 78.1309 309.713 82.4238 311.797 85.1222C311.797 85.1222 307.629 80.216 308.364 77.6403C309.835 72.8568 313.022 70.0357 315.596 69.5451C318.048 69.0545 324.667 68.0732 324.667 68.0732Z" fill="url(#paint3_linear_8_1753)"/>
<path d="M123.886 153.441C126.215 154.913 129.524 142.279 128.666 139.213C127.808 136.146 125.97 129.278 126.46 131.363C127.073 133.325 126.337 138.6 123.028 145.468C121.557 148.412 119.596 150.374 119.596 150.374L123.886 153.441Z" fill="url(#paint4_linear_8_1753)"/>
<path d="M144.111 144.854C146.563 146.203 149.627 151.6 149.627 151.6L144.601 155.403C144.601 155.403 142.027 143.996 136.144 142.646L144.111 144.854Z" fill="url(#paint5_linear_8_1753)"/>
<path d="M144.111 144.855C140.679 143.505 133.324 145.345 129.279 147.921C125.234 150.497 123.028 151.478 123.763 153.44L119.473 150.374C117.88 149.27 120.331 146.572 125.234 144.119C130.382 141.788 139.208 142.156 144.111 144.855Z" fill="url(#paint6_linear_8_1753)"/>
<path d="M128.666 139.213C127.318 134.429 123.396 131.117 120.699 129.768C117.389 128.051 112.854 125.966 110.28 128.296C110.28 128.296 114.693 123.635 117.389 124.126C122.292 125.107 125.479 127.928 126.215 130.381C126.828 132.834 128.666 139.213 128.666 139.213Z" fill="url(#paint7_linear_8_1753)"/>
<path d="M136.266 47.4679C134.795 45.7507 129.156 55.1951 129.156 57.8935C129.156 60.5919 129.156 66.4793 129.156 64.7622C129.156 63.045 130.872 58.8748 135.04 54.0912C136.879 52.0061 138.962 50.9022 138.962 50.9022L136.266 47.4679Z" fill="url(#paint8_linear_8_1753)"/>
<path d="M117.879 49.7983C116.163 48.2038 114.938 43.0523 114.938 43.0523L119.841 41.0898C119.841 41.0898 119.35 50.9022 123.886 53.2326L117.879 49.7983Z" fill="url(#paint9_linear_8_1753)"/>
<path d="M135.776 72.8574C137.86 71.8762 139.085 67.5833 140.189 65.4982C141.66 62.7998 143.131 60.96 145.092 60.96L149.382 61.2053C146.93 61.0826 145.705 63.4131 144.234 66.1114C143.131 68.0739 142.395 70.4044 141.537 70.7723L135.776 72.8574Z" fill="url(#paint10_linear_8_1753)"/>
<path d="M117.879 49.7982C120.331 51.638 126.705 51.7607 130.627 50.6568C134.55 49.4302 136.511 49.1849 136.266 47.4678L139.085 50.9021C140.066 52.1286 137.614 53.7231 132.956 54.5817C128.298 55.4403 121.189 53.1099 117.879 49.7982Z" fill="url(#paint11_linear_8_1753)"/>
<path d="M129.156 57.8936C129.156 62.0638 131.608 65.6208 133.446 67.338C135.775 69.5457 138.962 72.1215 141.537 70.8949C141.537 70.8949 136.879 73.716 134.795 72.7347C130.995 70.8949 129.034 67.8286 129.034 65.7434C129.156 63.5357 129.156 57.8936 129.156 57.8936Z" fill="url(#paint12_linear_8_1753)"/>
<path d="M144.969 60.96C144.969 60.96 147.543 60.96 149.749 61.2053C151.833 61.4506 154.285 62.6771 154.407 66.2341C154.53 69.7911 152.936 71.5082 152.936 71.5082L149.382 70.895C149.382 70.895 151.588 67.706 150.852 64.7622C150.117 61.8185 147.665 61.0826 144.969 60.96Z" fill="url(#paint13_linear_8_1753)"/>
<path d="M165.562 226.419C163.969 228.505 175.613 232.307 178.555 231.694C181.497 231.08 187.871 229.731 186.033 230.099C184.194 230.467 179.291 229.608 173.162 226.174C170.588 224.702 168.749 222.617 168.749 222.617L165.562 226.419Z" fill="url(#paint14_linear_8_1753)"/>
<path d="M172.426 245.799C171.078 248.007 165.93 250.583 165.93 250.583L162.62 245.676C162.62 245.676 173.407 243.837 174.878 238.562L172.426 245.799Z" fill="url(#paint15_linear_8_1753)"/>
<path d="M193.142 221.023C191.549 218.938 186.768 218.693 184.194 217.957C181.007 217.098 178.555 215.872 178.065 213.664L177.33 209.003C177.82 211.701 180.517 212.437 183.826 213.418C186.278 214.154 188.852 214.4 189.587 215.258L193.142 221.023Z" fill="url(#paint16_linear_8_1753)"/>
<path d="M172.426 245.799C173.897 242.733 172.549 235.742 170.343 231.939C168.136 228.014 167.401 225.929 165.562 226.543L168.626 222.74C169.73 221.391 172.059 223.722 174.02 228.505C176.104 233.166 175.246 241.384 172.426 245.799Z" fill="url(#paint17_linear_8_1753)"/>
<path d="M178.433 231.694C182.968 230.713 186.155 227.279 187.626 224.826C189.465 221.759 191.548 217.712 189.587 215.259C189.587 215.259 193.755 219.552 193.142 222.127C192.039 226.666 189.097 229.487 186.89 229.977C184.561 230.468 178.433 231.694 178.433 231.694Z" fill="url(#paint18_linear_8_1753)"/>
<path d="M178.187 213.787C178.187 213.787 177.574 210.965 177.452 208.635C177.207 206.305 177.942 203.361 181.742 202.502C185.542 201.644 187.748 202.87 187.748 202.87L187.993 206.795C187.993 206.795 183.948 205.078 181.006 206.673C177.942 208.144 177.697 210.965 178.187 213.787Z" fill="url(#paint19_linear_8_1753)"/>
<path d="M171.936 175.519C172.671 176.868 171.446 179.198 169.362 180.547C168.504 181.038 167.523 181.406 166.42 181.529L167.155 183.491C168.749 183.368 169.73 182.878 170.588 182.265C172.671 180.793 173.529 178.83 172.917 177.604L171.936 175.519Z" fill="url(#paint20_linear_8_1753)"/>
<path d="M198.045 8.46289C198.78 9.81209 197.554 12.1425 195.471 13.4917C194.613 13.9823 193.632 14.3503 192.529 14.473L193.264 16.4354C194.858 16.3128 195.838 15.8222 196.696 15.2089C198.78 13.737 199.638 11.7746 199.025 10.548L198.045 8.46289Z" fill="url(#paint21_linear_8_1753)"/>
<path d="M198.045 92.8497C196.819 93.7083 194.367 92.8497 192.774 91.0099C192.161 90.274 191.671 89.2928 191.426 88.3115L189.587 89.2928C189.955 90.8873 190.445 91.7459 191.303 92.4818C193.019 94.3216 195.103 94.9349 196.206 94.1989L198.045 92.8497Z" fill="url(#paint22_linear_8_1753)"/>
<path d="M135.898 18.5214C135.163 17.1722 136.388 14.8417 138.472 13.4925C139.33 13.0019 140.311 12.634 141.414 12.5113L140.679 10.5488C139.085 10.6715 138.104 11.1621 137.246 11.7754C135.163 13.2472 134.305 15.2097 134.917 16.4362L135.898 18.5214Z" fill="url(#paint23_linear_8_1753)"/>
<path d="M2.53416 86.8391C1.30838 85.4899 1.79869 84.018 3.51478 83.5274C4.25024 83.4047 5.10828 83.4047 6.0889 83.65L4.61797 81.8102C3.02447 81.4423 2.289 81.4423 1.55354 81.6876C-0.0399646 82.1782 -0.28512 83.65 0.695498 84.7539L2.53416 86.8391Z" fill="url(#paint24_linear_8_1753)"/>
<path d="M279.313 139.949C280.784 139.213 282.991 140.563 284.217 142.648C284.707 143.506 285.075 144.488 285.075 145.592L287.036 144.856C286.913 143.261 286.546 142.28 285.933 141.421C284.584 139.213 282.623 138.355 281.397 138.968L279.313 139.949Z" fill="url(#paint25_linear_8_1753)"/>
<path d="M34.4043 1.22674C35.8752 0.490815 38.0816 1.84001 39.3074 3.92514C39.7977 4.78372 40.1654 5.76496 40.1654 6.86885L42.0041 6.13292C41.8815 4.53841 41.5138 3.55718 40.9009 2.6986C39.5525 0.490815 37.5913 -0.367767 36.3655 0.245506L34.4043 1.22674Z" fill="url(#paint26_linear_8_1753)"/>
<path d="M37.3463 254.017C36.9786 252.546 38.6947 250.583 41.0236 249.847C42.0043 249.479 42.9849 249.479 44.0881 249.602L43.8429 247.517C42.2494 247.271 41.2688 247.517 40.1656 247.885C37.714 248.866 36.4883 250.583 36.7334 251.81L37.3463 254.017Z" fill="url(#paint27_linear_8_1753)"/>
<path d="M44.2107 203.851C47.1525 202.747 37.9592 191.218 34.5271 189.869C31.0949 188.52 23.7403 185.699 25.9466 186.557C28.153 187.416 32.4432 191.586 36.4883 199.19C38.2044 202.502 38.5721 205.691 38.5721 205.691L44.2107 203.851Z" fill="url(#paint28_linear_8_1753)"/>
<path d="M50.0939 179.689C53.0357 178.339 59.9001 179.198 59.9001 179.198L60.0227 186.312C60.0227 186.312 47.8875 180.915 42.7393 185.453L50.0939 179.689Z" fill="url(#paint29_linear_8_1753)"/>
<path d="M12.4629 191.096C12.7081 194.285 17.4886 197.719 19.4499 200.049C22.1466 203.116 23.7401 205.937 22.7594 208.39L20.3079 213.664C21.6562 210.72 19.3273 208.022 16.7531 204.833C14.7919 202.503 12.3404 200.417 12.0952 199.191L12.4629 191.096Z" fill="url(#paint30_linear_8_1753)"/>
<path d="M50.0941 179.688C46.5394 181.896 43.3524 189.746 42.8621 195.266C42.4943 200.662 41.8814 203.361 44.0878 203.974L38.4493 205.814C36.3655 206.427 35.63 202.502 36.7332 196.37C37.959 190.114 44.2104 182.387 50.0941 179.688Z" fill="url(#paint31_linear_8_1753)"/>
<path d="M34.5269 189.992C29.256 187.907 23.7401 189.256 20.6756 190.85C16.8757 192.69 11.9726 195.511 12.3404 199.314C12.3404 199.314 10.992 192.077 13.321 189.992C17.4886 186.19 22.2691 185.208 24.9658 186.19C27.4174 187.171 34.5269 189.992 34.5269 189.992Z" fill="url(#paint32_linear_8_1753)"/>
<path d="M22.882 208.39C22.882 208.39 21.6562 211.579 20.1853 214.154C18.8369 216.608 16.1402 219.183 11.7275 217.589C7.1921 215.994 5.84375 213.173 5.84375 213.173L8.2953 209.003C8.2953 209.003 11.2371 213.418 15.2822 213.786C19.3272 214.277 21.5336 211.701 22.882 208.39Z" fill="url(#paint33_linear_8_1753)"/>
<path d="M165.072 242.734C163.478 242.979 161.762 241.017 161.394 238.563C161.149 237.582 161.149 236.478 161.517 235.497H159.433C159.065 237.092 159.065 238.073 159.311 239.177C159.923 241.63 161.517 243.224 162.865 242.979L165.072 242.734Z" fill="url(#paint34_linear_8_1753)"/>
<path d="M368.428 67.7051C369.163 69.0543 367.937 71.3847 365.853 72.7339C364.995 73.2245 364.015 73.5925 362.912 73.7151L363.647 75.6776C365.241 75.555 366.221 75.0643 367.079 74.4511C369.163 72.9792 370.021 71.0168 369.408 69.7902L368.428 67.7051Z" fill="url(#paint35_linear_8_1753)"/>
<path d="M349.06 246.291C348.692 244.819 350.409 242.857 352.737 242.121C353.718 241.753 354.699 241.753 355.802 241.875L355.557 239.79C353.963 239.545 352.983 239.79 351.879 240.158C349.428 241.139 348.202 242.857 348.447 244.083L349.06 246.291Z" fill="url(#paint36_linear_8_1753)"/>
<path d="M139.944 192.445L138.35 195.757L132.711 192.936L134.305 189.624L139.944 192.445Z" fill="url(#paint37_linear_8_1753)"/>
<path d="M428 255.612L426.407 258.924L420.768 256.226L422.362 252.914L428 255.612Z" fill="url(#paint38_linear_8_1753)"/>
<path d="M224.399 263.707L222.806 267.019L217.167 264.32L218.761 261.009L224.399 263.707Z" fill="url(#paint39_linear_8_1753)"/>
<path d="M320.745 33.9757L319.151 37.2874L313.513 34.589L315.106 31.2773L320.745 33.9757Z" fill="url(#paint40_linear_8_1753)"/>
<path d="M268.65 52.864L267.056 56.1757L261.417 53.3546L263.011 50.043L268.65 52.864Z" fill="url(#paint41_linear_8_1753)"/>
<path d="M32.9332 46.7312L31.3397 50.0429L25.7012 47.2218L27.2947 43.9102L32.9332 46.7312Z" fill="url(#paint42_linear_8_1753)"/>
<path d="M255.656 159.573L252.102 158.837L253.45 152.582L257.005 153.441L255.656 159.573Z" fill="url(#paint43_linear_8_1753)"/>
<path d="M400.052 17.6626L396.498 16.9267L397.846 10.7939L401.401 11.5299L400.052 17.6626Z" fill="url(#paint44_linear_8_1753)"/>
<path d="M317.558 211.211L315.964 207.9L321.726 205.201L323.196 208.513L317.558 211.211Z" fill="url(#paint45_linear_8_1753)"/>
<defs>
<linearGradient id="paint0_linear_8_1753" x1="324.253" y1="66.8562" x2="332.417" y2="79.1113" gradientUnits="userSpaceOnUse">
<stop stop-color="#A22812"/>
<stop offset="0.3457" stop-color="#CB4124"/>
<stop offset="0.6433" stop-color="#C73F24"/>
<stop offset="1" stop-color="#9A2610"/>
</linearGradient>
<linearGradient id="paint1_linear_8_1753" x1="340.743" y1="51.2835" x2="326.124" y2="58.7439" gradientUnits="userSpaceOnUse">
<stop stop-color="#B42D13"/>
<stop offset="0.3457" stop-color="#CB4124"/>
<stop offset="0.6433" stop-color="#C73F24"/>
<stop offset="1" stop-color="#9A2610"/>
</linearGradient>
<linearGradient id="paint2_linear_8_1753" x1="328.112" y1="59.4311" x2="338.444" y2="74.9425" gradientUnits="userSpaceOnUse">
<stop stop-color="#E99200"/>
<stop offset="0.2038" stop-color="#B94108"/>
<stop offset="0.2784" stop-color="#C34C04"/>
<stop offset="0.5799" stop-color="#F6A300"/>
<stop offset="0.5959" stop-color="#F9B32A"/>
<stop offset="0.6116" stop-color="#FCC04A"/>
<stop offset="0.6266" stop-color="#FECA62"/>
<stop offset="0.6405" stop-color="#FFCF70"/>
<stop offset="0.6525" stop-color="#FFD175"/>
<stop offset="0.6631" stop-color="#FECD6C"/>
<stop offset="0.6806" stop-color="#FDC453"/>
<stop offset="0.7028" stop-color="#FBB42A"/>
<stop offset="0.7077" stop-color="#FAB020"/>
<stop offset="0.9122" stop-color="#FFC753"/>
<stop offset="1" stop-color="#FFEB7C"/>
</linearGradient>
<linearGradient id="paint3_linear_8_1753" x1="318.492" y1="69.1986" x2="309.115" y2="84.0319" gradientUnits="userSpaceOnUse">
<stop stop-color="#E99200"/>
<stop offset="0.2038" stop-color="#B94108"/>
<stop offset="0.2784" stop-color="#C34C04"/>
<stop offset="0.5799" stop-color="#F6A300"/>
<stop offset="0.5959" stop-color="#F9B32A"/>
<stop offset="0.6116" stop-color="#FCC04A"/>
<stop offset="0.6266" stop-color="#FECA62"/>
<stop offset="0.6405" stop-color="#FFCF70"/>
<stop offset="0.6525" stop-color="#FFD175"/>
<stop offset="0.6631" stop-color="#FECD6C"/>
<stop offset="0.6806" stop-color="#FDC453"/>
<stop offset="0.7028" stop-color="#FBB42A"/>
<stop offset="0.7077" stop-color="#FAB020"/>
<stop offset="0.9122" stop-color="#FFC753"/>
<stop offset="1" stop-color="#FFEB7C"/>
</linearGradient>
<linearGradient id="paint4_linear_8_1753" x1="129.772" y1="138.677" x2="118.489" y2="148.136" gradientUnits="userSpaceOnUse">
<stop stop-color="#A22812"/>
<stop offset="0.3457" stop-color="#CB4124"/>
<stop offset="0.6433" stop-color="#C73F24"/>
<stop offset="1" stop-color="#9A2610"/>
</linearGradient>
<linearGradient id="paint5_linear_8_1753" x1="147.06" y1="153.356" x2="138.02" y2="139.65" gradientUnits="userSpaceOnUse">
<stop stop-color="#B42D13"/>
<stop offset="0.3457" stop-color="#CB4124"/>
<stop offset="0.6433" stop-color="#C73F24"/>
<stop offset="1" stop-color="#9A2610"/>
</linearGradient>
<linearGradient id="paint6_linear_8_1753" x1="137.572" y1="141.695" x2="123.292" y2="153.666" gradientUnits="userSpaceOnUse">
<stop stop-color="#E99200"/>
<stop offset="0.2038" stop-color="#B94108"/>
<stop offset="0.2784" stop-color="#C34C04"/>
<stop offset="0.5799" stop-color="#F6A300"/>
<stop offset="0.5959" stop-color="#F9B32A"/>
<stop offset="0.6116" stop-color="#FCC04A"/>
<stop offset="0.6266" stop-color="#FECA62"/>
<stop offset="0.6405" stop-color="#FFCF70"/>
<stop offset="0.6525" stop-color="#FFD175"/>
<stop offset="0.6631" stop-color="#FECD6C"/>
<stop offset="0.6806" stop-color="#FDC453"/>
<stop offset="0.7028" stop-color="#FBB42A"/>
<stop offset="0.7077" stop-color="#FAB020"/>
<stop offset="0.9122" stop-color="#FFC753"/>
<stop offset="1" stop-color="#FFEB7C"/>
</linearGradient>
<linearGradient id="paint7_linear_8_1753" x1="126.809" y1="133.206" x2="111.031" y2="125.535" gradientUnits="userSpaceOnUse">
<stop stop-color="#E99200"/>
<stop offset="0.2038" stop-color="#B94108"/>
<stop offset="0.2784" stop-color="#C34C04"/>
<stop offset="0.5799" stop-color="#F6A300"/>
<stop offset="0.5959" stop-color="#F9B32A"/>
<stop offset="0.6116" stop-color="#FCC04A"/>
<stop offset="0.6266" stop-color="#FECA62"/>
<stop offset="0.6405" stop-color="#FFCF70"/>
<stop offset="0.6525" stop-color="#FFD175"/>
<stop offset="0.6631" stop-color="#FECD6C"/>
<stop offset="0.6806" stop-color="#FDC453"/>
<stop offset="0.7028" stop-color="#FBB42A"/>
<stop offset="0.7077" stop-color="#FAB020"/>
<stop offset="0.9122" stop-color="#FFC753"/>
<stop offset="1" stop-color="#FFEB7C"/>
</linearGradient>
<linearGradient id="paint8_linear_8_1753" x1="128.097" y1="58.0654" x2="139.359" y2="52.926" gradientUnits="userSpaceOnUse">
<stop stop-color="#A22812"/>
<stop offset="0.3457" stop-color="#CB4124"/>
<stop offset="0.6433" stop-color="#C73F24"/>
<stop offset="1" stop-color="#9A2610"/>
</linearGradient>
<linearGradient id="paint9_linear_8_1753" x1="117.371" y1="42.2909" x2="121.627" y2="55.4273" gradientUnits="userSpaceOnUse">
<stop stop-color="#B42D13"/>
<stop offset="0.3457" stop-color="#CB4124"/>
<stop offset="0.6433" stop-color="#C73F24"/>
<stop offset="1" stop-color="#9A2610"/>
</linearGradient>
<linearGradient id="paint10_linear_8_1753" x1="143.93" y1="60.1919" x2="141.651" y2="71.9512" gradientUnits="userSpaceOnUse">
<stop stop-color="#A22812"/>
<stop offset="0.3457" stop-color="#CB4124"/>
<stop offset="0.6433" stop-color="#C73F24"/>
<stop offset="1" stop-color="#9A2610"/>
</linearGradient>
<linearGradient id="paint11_linear_8_1753" x1="122.451" y1="53.8703" x2="136.704" y2="47.3656" gradientUnits="userSpaceOnUse">
<stop stop-color="#E99200"/>
<stop offset="0.2038" stop-color="#B94108"/>
<stop offset="0.2784" stop-color="#C34C04"/>
<stop offset="0.5799" stop-color="#F6A300"/>
<stop offset="0.5959" stop-color="#F9B32A"/>
<stop offset="0.6116" stop-color="#FCC04A"/>
<stop offset="0.6266" stop-color="#FECA62"/>
<stop offset="0.6405" stop-color="#FFCF70"/>
<stop offset="0.6525" stop-color="#FFD175"/>
<stop offset="0.6631" stop-color="#FECD6C"/>
<stop offset="0.6806" stop-color="#FDC453"/>
<stop offset="0.7028" stop-color="#FBB42A"/>
<stop offset="0.7077" stop-color="#FAB020"/>
<stop offset="0.9122" stop-color="#FFC753"/>
<stop offset="1" stop-color="#FFEB7C"/>
</linearGradient>
<linearGradient id="paint12_linear_8_1753" x1="129.274" y1="63.1641" x2="140.346" y2="72.9166" gradientUnits="userSpaceOnUse">
<stop stop-color="#E99200"/>
<stop offset="0.2038" stop-color="#B94108"/>
<stop offset="0.2784" stop-color="#C34C04"/>
<stop offset="0.5799" stop-color="#F6A300"/>
<stop offset="0.5959" stop-color="#F9B32A"/>
<stop offset="0.6116" stop-color="#FCC04A"/>
<stop offset="0.6266" stop-color="#FECA62"/>
<stop offset="0.6405" stop-color="#FFCF70"/>
<stop offset="0.6525" stop-color="#FFD175"/>
<stop offset="0.6631" stop-color="#FECD6C"/>
<stop offset="0.6806" stop-color="#FDC453"/>
<stop offset="0.7028" stop-color="#FBB42A"/>
<stop offset="0.7077" stop-color="#FAB020"/>
<stop offset="0.9122" stop-color="#FFC753"/>
<stop offset="1" stop-color="#FFEB7C"/>
</linearGradient>
<linearGradient id="paint13_linear_8_1753" x1="150.264" y1="61.3458" x2="148.705" y2="69.3887" gradientUnits="userSpaceOnUse">
<stop stop-color="#E99200"/>
<stop offset="0.2038" stop-color="#B94108"/>
<stop offset="0.2784" stop-color="#C34C04"/>
<stop offset="0.5799" stop-color="#F6A300"/>
<stop offset="0.5959" stop-color="#F9B32A"/>
<stop offset="0.6116" stop-color="#FCC04A"/>
<stop offset="0.6266" stop-color="#FECA62"/>
<stop offset="0.6405" stop-color="#FFCF70"/>
<stop offset="0.6525" stop-color="#FFD175"/>
<stop offset="0.6631" stop-color="#FECD6C"/>
<stop offset="0.6806" stop-color="#FDC453"/>
<stop offset="0.7028" stop-color="#FBB42A"/>
<stop offset="0.7077" stop-color="#FAB020"/>
<stop offset="0.9122" stop-color="#FFC753"/>
<stop offset="1" stop-color="#FFEB7C"/>
</linearGradient>
<linearGradient id="paint14_linear_8_1753" x1="178.947" y1="232.783" x2="170.768" y2="221.806" gradientUnits="userSpaceOnUse">
<stop stop-color="#A22812"/>
<stop offset="0.3457" stop-color="#CB4124"/>
<stop offset="0.6433" stop-color="#C73F24"/>
<stop offset="1" stop-color="#9A2610"/>
</linearGradient>
<linearGradient id="paint15_linear_8_1753" x1="164.401" y1="248.047" x2="177.607" y2="240.406" gradientUnits="userSpaceOnUse">
<stop stop-color="#B42D13"/>
<stop offset="0.3457" stop-color="#CB4124"/>
<stop offset="0.6433" stop-color="#C73F24"/>
<stop offset="1" stop-color="#9A2610"/>
</linearGradient>
<linearGradient id="paint16_linear_8_1753" x1="177.567" y1="215.167" x2="190.797" y2="214.898" gradientUnits="userSpaceOnUse">
<stop stop-color="#A22812"/>
<stop offset="0.3457" stop-color="#CB4124"/>
<stop offset="0.6433" stop-color="#C73F24"/>
<stop offset="1" stop-color="#9A2610"/>
</linearGradient>
<linearGradient id="paint17_linear_8_1753" x1="175.727" y1="239.865" x2="165.376" y2="225.972" gradientUnits="userSpaceOnUse">
<stop stop-color="#E99200"/>
<stop offset="0.2038" stop-color="#B94108"/>
<stop offset="0.2784" stop-color="#C34C04"/>
<stop offset="0.5799" stop-color="#F6A300"/>
<stop offset="0.5959" stop-color="#F9B32A"/>
<stop offset="0.6116" stop-color="#FCC04A"/>
<stop offset="0.6266" stop-color="#FECA62"/>
<stop offset="0.6405" stop-color="#FFCF70"/>
<stop offset="0.6525" stop-color="#FFD175"/>
<stop offset="0.6631" stop-color="#FECD6C"/>
<stop offset="0.6806" stop-color="#FDC453"/>
<stop offset="0.7028" stop-color="#FBB42A"/>
<stop offset="0.7077" stop-color="#FAB020"/>
<stop offset="0.9122" stop-color="#FFC753"/>
<stop offset="1" stop-color="#FFEB7C"/>
</linearGradient>
<linearGradient id="paint18_linear_8_1753" x1="184.181" y1="230.327" x2="192.16" y2="216.097" gradientUnits="userSpaceOnUse">
<stop stop-color="#E99200"/>
<stop offset="0.2038" stop-color="#B94108"/>
<stop offset="0.2784" stop-color="#C34C04"/>
<stop offset="0.5799" stop-color="#F6A300"/>
<stop offset="0.5959" stop-color="#F9B32A"/>
<stop offset="0.6116" stop-color="#FCC04A"/>
<stop offset="0.6266" stop-color="#FECA62"/>
<stop offset="0.6405" stop-color="#FFCF70"/>
<stop offset="0.6525" stop-color="#FFD175"/>
<stop offset="0.6631" stop-color="#FECD6C"/>
<stop offset="0.6806" stop-color="#FDC453"/>
<stop offset="0.7028" stop-color="#FBB42A"/>
<stop offset="0.7077" stop-color="#FAB020"/>
<stop offset="0.9122" stop-color="#FFC753"/>
<stop offset="1" stop-color="#FFEB7C"/>
</linearGradient>
<linearGradient id="paint19_linear_8_1753" x1="177.341" y1="208.049" x2="186.391" y2="207.866" gradientUnits="userSpaceOnUse">
<stop stop-color="#E99200"/>
<stop offset="0.2038" stop-color="#B94108"/>
<stop offset="0.2784" stop-color="#C34C04"/>
<stop offset="0.5799" stop-color="#F6A300"/>
<stop offset="0.5959" stop-color="#F9B32A"/>
<stop offset="0.6116" stop-color="#FCC04A"/>
<stop offset="0.6266" stop-color="#FECA62"/>
<stop offset="0.6405" stop-color="#FFCF70"/>
<stop offset="0.6525" stop-color="#FFD175"/>
<stop offset="0.6631" stop-color="#FECD6C"/>
<stop offset="0.6806" stop-color="#FDC453"/>
<stop offset="0.7028" stop-color="#FBB42A"/>
<stop offset="0.7077" stop-color="#FAB020"/>
<stop offset="0.9122" stop-color="#FFC753"/>
<stop offset="1" stop-color="#FFEB7C"/>
</linearGradient>
<linearGradient id="paint20_linear_8_1753" x1="167.01" y1="183.461" x2="173.278" y2="176.852" gradientUnits="userSpaceOnUse">
<stop stop-color="#E99200"/>
<stop offset="0.2038" stop-color="#B94108"/>
<stop offset="0.2784" stop-color="#C34C04"/>
<stop offset="0.5799" stop-color="#F6A300"/>
<stop offset="0.5959" stop-color="#F9B32A"/>
<stop offset="0.6116" stop-color="#FCC04A"/>
<stop offset="0.6266" stop-color="#FECA62"/>
<stop offset="0.6405" stop-color="#FFCF70"/>
<stop offset="0.6525" stop-color="#FFD175"/>
<stop offset="0.6631" stop-color="#FECD6C"/>
<stop offset="0.6806" stop-color="#FDC453"/>
<stop offset="0.7028" stop-color="#FBB42A"/>
<stop offset="0.7077" stop-color="#FAB020"/>
<stop offset="0.9122" stop-color="#FFC753"/>
<stop offset="1" stop-color="#FFEB7C"/>
</linearGradient>
<linearGradient id="paint21_linear_8_1753" x1="193.149" y1="16.4038" x2="199.417" y2="9.79406" gradientUnits="userSpaceOnUse">
<stop stop-color="#E99200"/>
<stop offset="0.2038" stop-color="#B94108"/>
<stop offset="0.2784" stop-color="#C34C04"/>
<stop offset="0.5799" stop-color="#F6A300"/>
<stop offset="0.5959" stop-color="#F9B32A"/>
<stop offset="0.6116" stop-color="#FCC04A"/>
<stop offset="0.6266" stop-color="#FECA62"/>
<stop offset="0.6405" stop-color="#FFCF70"/>
<stop offset="0.6525" stop-color="#FFD175"/>
<stop offset="0.6631" stop-color="#FECD6C"/>
<stop offset="0.6806" stop-color="#FDC453"/>
<stop offset="0.7028" stop-color="#FBB42A"/>
<stop offset="0.7077" stop-color="#FAB020"/>
<stop offset="0.9122" stop-color="#FFC753"/>
<stop offset="1" stop-color="#FFEB7C"/>
</linearGradient>
<linearGradient id="paint22_linear_8_1753" x1="189.473" y1="89.0538" x2="196.846" y2="94.401" gradientUnits="userSpaceOnUse">
<stop stop-color="#E99200"/>
<stop offset="0.2038" stop-color="#B94108"/>
<stop offset="0.2784" stop-color="#C34C04"/>
<stop offset="0.5799" stop-color="#F6A300"/>
<stop offset="0.5959" stop-color="#F9B32A"/>
<stop offset="0.6116" stop-color="#FCC04A"/>
<stop offset="0.6266" stop-color="#FECA62"/>
<stop offset="0.6405" stop-color="#FFCF70"/>
<stop offset="0.6525" stop-color="#FFD175"/>
<stop offset="0.6631" stop-color="#FECD6C"/>
<stop offset="0.6806" stop-color="#FDC453"/>
<stop offset="0.7028" stop-color="#FBB42A"/>
<stop offset="0.7077" stop-color="#FAB020"/>
<stop offset="0.9122" stop-color="#FFC753"/>
<stop offset="1" stop-color="#FFEB7C"/>
</linearGradient>
<linearGradient id="paint23_linear_8_1753" x1="140.835" y1="10.4769" x2="134.561" y2="17.0798" gradientUnits="userSpaceOnUse">
<stop stop-color="#E99200"/>
<stop offset="0.2038" stop-color="#B94108"/>
<stop offset="0.2784" stop-color="#C34C04"/>
<stop offset="0.5799" stop-color="#F6A300"/>
<stop offset="0.5959" stop-color="#F9B32A"/>
<stop offset="0.6116" stop-color="#FCC04A"/>
<stop offset="0.6266" stop-color="#FECA62"/>
<stop offset="0.6405" stop-color="#FFCF70"/>
<stop offset="0.6525" stop-color="#FFD175"/>
<stop offset="0.6631" stop-color="#FECD6C"/>
<stop offset="0.6806" stop-color="#FDC453"/>
<stop offset="0.7028" stop-color="#FBB42A"/>
<stop offset="0.7077" stop-color="#FAB020"/>
<stop offset="0.9122" stop-color="#FFC753"/>
<stop offset="1" stop-color="#FFEB7C"/>
</linearGradient>
<linearGradient id="paint24_linear_8_1753" x1="4.86872" y1="81.8699" x2="1.46011" y2="85.913" gradientUnits="userSpaceOnUse">
<stop stop-color="#E99200"/>
<stop offset="0.2038" stop-color="#B94108"/>
<stop offset="0.2784" stop-color="#C34C04"/>
<stop offset="0.5799" stop-color="#F6A300"/>
<stop offset="0.5959" stop-color="#F9B32A"/>
<stop offset="0.6116" stop-color="#FCC04A"/>
<stop offset="0.6266" stop-color="#FECA62"/>
<stop offset="0.6405" stop-color="#FFCF70"/>
<stop offset="0.6525" stop-color="#FFD175"/>
<stop offset="0.6631" stop-color="#FECD6C"/>
<stop offset="0.6806" stop-color="#FDC453"/>
<stop offset="0.7028" stop-color="#FBB42A"/>
<stop offset="0.7077" stop-color="#FAB020"/>
<stop offset="0.9122" stop-color="#FFC753"/>
<stop offset="1" stop-color="#FFEB7C"/>
</linearGradient>
<linearGradient id="paint25_linear_8_1753" x1="287.141" y1="145.259" x2="280.795" y2="138.724" gradientUnits="userSpaceOnUse">
<stop stop-color="#E99200"/>
<stop offset="0.2038" stop-color="#B94108"/>
<stop offset="0.2784" stop-color="#C34C04"/>
<stop offset="0.5799" stop-color="#F6A300"/>
<stop offset="0.5959" stop-color="#F9B32A"/>
<stop offset="0.6116" stop-color="#FCC04A"/>
<stop offset="0.6266" stop-color="#FECA62"/>
<stop offset="0.6405" stop-color="#FFCF70"/>
<stop offset="0.6525" stop-color="#FFD175"/>
<stop offset="0.6631" stop-color="#FECD6C"/>
<stop offset="0.6806" stop-color="#FDC453"/>
<stop offset="0.7028" stop-color="#FBB42A"/>
<stop offset="0.7077" stop-color="#FAB020"/>
<stop offset="0.9122" stop-color="#FFC753"/>
<stop offset="1" stop-color="#FFEB7C"/>
</linearGradient>
<linearGradient id="paint26_linear_8_1753" x1="42.1495" y1="6.42052" x2="35.8039" y2="-0.113979" gradientUnits="userSpaceOnUse">
<stop stop-color="#E99200"/>
<stop offset="0.2038" stop-color="#B94108"/>
<stop offset="0.2784" stop-color="#C34C04"/>
<stop offset="0.5799" stop-color="#F6A300"/>
<stop offset="0.5959" stop-color="#F9B32A"/>
<stop offset="0.6116" stop-color="#FCC04A"/>
<stop offset="0.6266" stop-color="#FECA62"/>
<stop offset="0.6405" stop-color="#FFCF70"/>
<stop offset="0.6525" stop-color="#FFD175"/>
<stop offset="0.6631" stop-color="#FECD6C"/>
<stop offset="0.6806" stop-color="#FDC453"/>
<stop offset="0.7028" stop-color="#FBB42A"/>
<stop offset="0.7077" stop-color="#FAB020"/>
<stop offset="0.9122" stop-color="#FFC753"/>
<stop offset="1" stop-color="#FFEB7C"/>
</linearGradient>
<linearGradient id="paint27_linear_8_1753" x1="44.0287" y1="247.529" x2="36.3299" y2="252.394" gradientUnits="userSpaceOnUse">
<stop stop-color="#E99200"/>
<stop offset="0.2038" stop-color="#B94108"/>
<stop offset="0.2784" stop-color="#C34C04"/>
<stop offset="0.5799" stop-color="#F6A300"/>
<stop offset="0.5959" stop-color="#F9B32A"/>
<stop offset="0.6116" stop-color="#FCC04A"/>
<stop offset="0.6266" stop-color="#FECA62"/>
<stop offset="0.6405" stop-color="#FFCF70"/>
<stop offset="0.6525" stop-color="#FFD175"/>
<stop offset="0.6631" stop-color="#FECD6C"/>
<stop offset="0.6806" stop-color="#FDC453"/>
<stop offset="0.7028" stop-color="#FBB42A"/>
<stop offset="0.7077" stop-color="#FAB020"/>
<stop offset="0.9122" stop-color="#FFC753"/>
<stop offset="1" stop-color="#FFEB7C"/>
</linearGradient>
<linearGradient id="paint28_linear_8_1753" x1="34.7487" y1="188.539" x2="35.7335" y2="205.164" gradientUnits="userSpaceOnUse">
<stop stop-color="#A22812"/>
<stop offset="0.3457" stop-color="#CB4124"/>
<stop offset="0.6433" stop-color="#C73F24"/>
<stop offset="1" stop-color="#9A2610"/>
</linearGradient>
<linearGradient id="paint29_linear_8_1753" x1="59.7206" y1="182.735" x2="41.1939" y2="181.695" gradientUnits="userSpaceOnUse">
<stop stop-color="#B42D13"/>
<stop offset="0.3457" stop-color="#CB4124"/>
<stop offset="0.6433" stop-color="#C73F24"/>
<stop offset="1" stop-color="#9A2610"/>
</linearGradient>
<linearGradient id="paint30_linear_8_1753" x1="24.4009" y1="207.374" x2="10.7641" y2="198.819" gradientUnits="userSpaceOnUse">
<stop stop-color="#A22812"/>
<stop offset="0.3457" stop-color="#CB4124"/>
<stop offset="0.6433" stop-color="#C73F24"/>
<stop offset="1" stop-color="#9A2610"/>
</linearGradient>
<linearGradient id="paint31_linear_8_1753" x1="42.7453" y1="183.49" x2="43.9917" y2="204.53" gradientUnits="userSpaceOnUse">
<stop stop-color="#E99200"/>
<stop offset="0.2038" stop-color="#B94108"/>
<stop offset="0.2784" stop-color="#C34C04"/>
<stop offset="0.5799" stop-color="#F6A300"/>
<stop offset="0.5959" stop-color="#F9B32A"/>
<stop offset="0.6116" stop-color="#FCC04A"/>
<stop offset="0.6266" stop-color="#FECA62"/>
<stop offset="0.6405" stop-color="#FFCF70"/>
<stop offset="0.6525" stop-color="#FFD175"/>
<stop offset="0.6631" stop-color="#FECD6C"/>
<stop offset="0.6806" stop-color="#FDC453"/>
<stop offset="0.7028" stop-color="#FBB42A"/>
<stop offset="0.7077" stop-color="#FAB020"/>
<stop offset="0.9122" stop-color="#FFC753"/>
<stop offset="1" stop-color="#FFEB7C"/>
</linearGradient>
<linearGradient id="paint32_linear_8_1753" x1="27.7881" y1="187.542" x2="10.1836" y2="196.682" gradientUnits="userSpaceOnUse">
<stop stop-color="#E99200"/>
<stop offset="0.2038" stop-color="#B94108"/>
<stop offset="0.2784" stop-color="#C34C04"/>
<stop offset="0.5799" stop-color="#F6A300"/>
<stop offset="0.5959" stop-color="#F9B32A"/>
<stop offset="0.6116" stop-color="#FCC04A"/>
<stop offset="0.6266" stop-color="#FECA62"/>
<stop offset="0.6405" stop-color="#FFCF70"/>
<stop offset="0.6525" stop-color="#FFD175"/>
<stop offset="0.6631" stop-color="#FECD6C"/>
<stop offset="0.6806" stop-color="#FDC453"/>
<stop offset="0.7028" stop-color="#FBB42A"/>
<stop offset="0.7077" stop-color="#FAB020"/>
<stop offset="0.9122" stop-color="#FFC753"/>
<stop offset="1" stop-color="#FFEB7C"/>
</linearGradient>
<linearGradient id="paint33_linear_8_1753" x1="19.8815" y1="214.761" x2="10.5546" y2="208.909" gradientUnits="userSpaceOnUse">
<stop stop-color="#E99200"/>
<stop offset="0.2038" stop-color="#B94108"/>
<stop offset="0.2784" stop-color="#C34C04"/>
<stop offset="0.5799" stop-color="#F6A300"/>
<stop offset="0.5959" stop-color="#F9B32A"/>
<stop offset="0.6116" stop-color="#FCC04A"/>
<stop offset="0.6266" stop-color="#FECA62"/>
<stop offset="0.6405" stop-color="#FFCF70"/>
<stop offset="0.6525" stop-color="#FFD175"/>
<stop offset="0.6631" stop-color="#FECD6C"/>
<stop offset="0.6806" stop-color="#FDC453"/>
<stop offset="0.7028" stop-color="#FBB42A"/>
<stop offset="0.7077" stop-color="#FAB020"/>
<stop offset="0.9122" stop-color="#FFC753"/>
<stop offset="1" stop-color="#FFEB7C"/>
</linearGradient>
<linearGradient id="paint34_linear_8_1753" x1="159.409" y1="235.231" x2="163.316" y2="243.461" gradientUnits="userSpaceOnUse">
<stop stop-color="#E99200"/>
<stop offset="0.2038" stop-color="#B94108"/>
<stop offset="0.2784" stop-color="#C34C04"/>
<stop offset="0.5799" stop-color="#F6A300"/>
<stop offset="0.5959" stop-color="#F9B32A"/>
<stop offset="0.6116" stop-color="#FCC04A"/>
<stop offset="0.6266" stop-color="#FECA62"/>
<stop offset="0.6405" stop-color="#FFCF70"/>
<stop offset="0.6525" stop-color="#FFD175"/>
<stop offset="0.6631" stop-color="#FECD6C"/>
<stop offset="0.6806" stop-color="#FDC453"/>
<stop offset="0.7028" stop-color="#FBB42A"/>
<stop offset="0.7077" stop-color="#FAB020"/>
<stop offset="0.9122" stop-color="#FFC753"/>
<stop offset="1" stop-color="#FFEB7C"/>
</linearGradient>
<linearGradient id="paint35_linear_8_1753" x1="363.559" y1="75.6555" x2="369.827" y2="69.0457" gradientUnits="userSpaceOnUse">
<stop stop-color="#E99200"/>
<stop offset="0.2038" stop-color="#B94108"/>
<stop offset="0.2784" stop-color="#C34C04"/>
<stop offset="0.5799" stop-color="#F6A300"/>
<stop offset="0.5959" stop-color="#F9B32A"/>
<stop offset="0.6116" stop-color="#FCC04A"/>
<stop offset="0.6266" stop-color="#FECA62"/>
<stop offset="0.6405" stop-color="#FFCF70"/>
<stop offset="0.6525" stop-color="#FFD175"/>
<stop offset="0.6631" stop-color="#FECD6C"/>
<stop offset="0.6806" stop-color="#FDC453"/>
<stop offset="0.7028" stop-color="#FBB42A"/>
<stop offset="0.7077" stop-color="#FAB020"/>
<stop offset="0.9122" stop-color="#FFC753"/>
<stop offset="1" stop-color="#FFEB7C"/>
</linearGradient>
<linearGradient id="paint36_linear_8_1753" x1="355.85" y1="239.764" x2="348.151" y2="244.629" gradientUnits="userSpaceOnUse">
<stop stop-color="#E99200"/>
<stop offset="0.2038" stop-color="#B94108"/>
<stop offset="0.2784" stop-color="#C34C04"/>
<stop offset="0.5799" stop-color="#F6A300"/>
<stop offset="0.5959" stop-color="#F9B32A"/>
<stop offset="0.6116" stop-color="#FCC04A"/>
<stop offset="0.6266" stop-color="#FECA62"/>
<stop offset="0.6405" stop-color="#FFCF70"/>
<stop offset="0.6525" stop-color="#FFD175"/>
<stop offset="0.6631" stop-color="#FECD6C"/>
<stop offset="0.6806" stop-color="#FDC453"/>
<stop offset="0.7028" stop-color="#FBB42A"/>
<stop offset="0.7077" stop-color="#FAB020"/>
<stop offset="0.9122" stop-color="#FFC753"/>
<stop offset="1" stop-color="#FFEB7C"/>
</linearGradient>
<linearGradient id="paint37_linear_8_1753" x1="133.395" y1="191.276" x2="139.249" y2="194.12" gradientUnits="userSpaceOnUse">
<stop stop-color="#E99200"/>
<stop offset="0.2038" stop-color="#B94108"/>
<stop offset="0.2784" stop-color="#C34C04"/>
<stop offset="0.5799" stop-color="#F6A300"/>
<stop offset="0.5959" stop-color="#F9B32A"/>
<stop offset="0.6116" stop-color="#FCC04A"/>
<stop offset="0.6266" stop-color="#FECA62"/>
<stop offset="0.6405" stop-color="#FFCF70"/>
<stop offset="0.6525" stop-color="#FFD175"/>
<stop offset="0.6631" stop-color="#FECD6C"/>
<stop offset="0.6806" stop-color="#FDC453"/>
<stop offset="0.7028" stop-color="#FBB42A"/>
<stop offset="0.7077" stop-color="#FAB020"/>
<stop offset="0.9122" stop-color="#FFC753"/>
<stop offset="1" stop-color="#FFEB7C"/>
</linearGradient>
<linearGradient id="paint38_linear_8_1753" x1="421.486" y1="254.51" x2="427.339" y2="257.354" gradientUnits="userSpaceOnUse">
<stop stop-color="#E99200"/>
<stop offset="0.2038" stop-color="#B94108"/>
<stop offset="0.2784" stop-color="#C34C04"/>
<stop offset="0.5799" stop-color="#F6A300"/>
<stop offset="0.5959" stop-color="#F9B32A"/>
<stop offset="0.6116" stop-color="#FCC04A"/>
<stop offset="0.6266" stop-color="#FECA62"/>
<stop offset="0.6405" stop-color="#FFCF70"/>
<stop offset="0.6525" stop-color="#FFD175"/>
<stop offset="0.6631" stop-color="#FECD6C"/>
<stop offset="0.6806" stop-color="#FDC453"/>
<stop offset="0.7028" stop-color="#FBB42A"/>
<stop offset="0.7077" stop-color="#FAB020"/>
<stop offset="0.9122" stop-color="#FFC753"/>
<stop offset="1" stop-color="#FFEB7C"/>
</linearGradient>
<linearGradient id="paint39_linear_8_1753" x1="217.856" y1="262.601" x2="223.709" y2="265.445" gradientUnits="userSpaceOnUse">
<stop stop-color="#E99200"/>
<stop offset="0.2038" stop-color="#B94108"/>
<stop offset="0.2784" stop-color="#C34C04"/>
<stop offset="0.5799" stop-color="#F6A300"/>
<stop offset="0.5959" stop-color="#F9B32A"/>
<stop offset="0.6116" stop-color="#FCC04A"/>
<stop offset="0.6266" stop-color="#FECA62"/>
<stop offset="0.6405" stop-color="#FFCF70"/>
<stop offset="0.6525" stop-color="#FFD175"/>
<stop offset="0.6631" stop-color="#FECD6C"/>
<stop offset="0.6806" stop-color="#FDC453"/>
<stop offset="0.7028" stop-color="#FBB42A"/>
<stop offset="0.7077" stop-color="#FAB020"/>
<stop offset="0.9122" stop-color="#FFC753"/>
<stop offset="1" stop-color="#FFEB7C"/>
</linearGradient>
<linearGradient id="paint40_linear_8_1753" x1="314.216" y1="32.8555" x2="320.069" y2="35.6989" gradientUnits="userSpaceOnUse">
<stop stop-color="#E99200"/>
<stop offset="0.2038" stop-color="#B94108"/>
<stop offset="0.2784" stop-color="#C34C04"/>
<stop offset="0.5799" stop-color="#F6A300"/>
<stop offset="0.5959" stop-color="#F9B32A"/>
<stop offset="0.6116" stop-color="#FCC04A"/>
<stop offset="0.6266" stop-color="#FECA62"/>
<stop offset="0.6405" stop-color="#FFCF70"/>
<stop offset="0.6525" stop-color="#FFD175"/>
<stop offset="0.6631" stop-color="#FECD6C"/>
<stop offset="0.6806" stop-color="#FDC453"/>
<stop offset="0.7028" stop-color="#FBB42A"/>
<stop offset="0.7077" stop-color="#FAB020"/>
<stop offset="0.9122" stop-color="#FFC753"/>
<stop offset="1" stop-color="#FFEB7C"/>
</linearGradient>
<linearGradient id="paint41_linear_8_1753" x1="262.108" y1="51.6904" x2="267.961" y2="54.5339" gradientUnits="userSpaceOnUse">
<stop stop-color="#E99200"/>
<stop offset="0.2038" stop-color="#B94108"/>
<stop offset="0.2784" stop-color="#C34C04"/>
<stop offset="0.5799" stop-color="#F6A300"/>
<stop offset="0.5959" stop-color="#F9B32A"/>
<stop offset="0.6116" stop-color="#FCC04A"/>
<stop offset="0.6266" stop-color="#FECA62"/>
<stop offset="0.6405" stop-color="#FFCF70"/>
<stop offset="0.6525" stop-color="#FFD175"/>
<stop offset="0.6631" stop-color="#FECD6C"/>
<stop offset="0.6806" stop-color="#FDC453"/>
<stop offset="0.7028" stop-color="#FBB42A"/>
<stop offset="0.7077" stop-color="#FAB020"/>
<stop offset="0.9122" stop-color="#FFC753"/>
<stop offset="1" stop-color="#FFEB7C"/>
</linearGradient>
<linearGradient id="paint42_linear_8_1753" x1="26.4153" y1="45.5384" x2="32.2685" y2="48.3818" gradientUnits="userSpaceOnUse">
<stop stop-color="#E99200"/>
<stop offset="0.2038" stop-color="#B94108"/>
<stop offset="0.2784" stop-color="#C34C04"/>
<stop offset="0.5799" stop-color="#F6A300"/>
<stop offset="0.5959" stop-color="#F9B32A"/>
<stop offset="0.6116" stop-color="#FCC04A"/>
<stop offset="0.6266" stop-color="#FECA62"/>
<stop offset="0.6405" stop-color="#FFCF70"/>
<stop offset="0.6525" stop-color="#FFD175"/>
<stop offset="0.6631" stop-color="#FECD6C"/>
<stop offset="0.6806" stop-color="#FDC453"/>
<stop offset="0.7028" stop-color="#FBB42A"/>
<stop offset="0.7077" stop-color="#FAB020"/>
<stop offset="0.9122" stop-color="#FFC753"/>
<stop offset="1" stop-color="#FFEB7C"/>
</linearGradient>
<linearGradient id="paint43_linear_8_1753" x1="255.288" y1="152.92" x2="253.879" y2="159.277" gradientUnits="userSpaceOnUse">
<stop stop-color="#E99200"/>
<stop offset="0.2038" stop-color="#B94108"/>
<stop offset="0.2784" stop-color="#C34C04"/>
<stop offset="0.5799" stop-color="#F6A300"/>
<stop offset="0.5959" stop-color="#F9B32A"/>
<stop offset="0.6116" stop-color="#FCC04A"/>
<stop offset="0.6266" stop-color="#FECA62"/>
<stop offset="0.6405" stop-color="#FFCF70"/>
<stop offset="0.6525" stop-color="#FFD175"/>
<stop offset="0.6631" stop-color="#FECD6C"/>
<stop offset="0.6806" stop-color="#FDC453"/>
<stop offset="0.7028" stop-color="#FBB42A"/>
<stop offset="0.7077" stop-color="#FAB020"/>
<stop offset="0.9122" stop-color="#FFC753"/>
<stop offset="1" stop-color="#FFEB7C"/>
</linearGradient>
<linearGradient id="paint44_linear_8_1753" x1="399.676" y1="11.0535" x2="398.267" y2="17.4096" gradientUnits="userSpaceOnUse">
<stop stop-color="#E99200"/>
<stop offset="0.2038" stop-color="#B94108"/>
<stop offset="0.2784" stop-color="#C34C04"/>
<stop offset="0.5799" stop-color="#F6A300"/>
<stop offset="0.5959" stop-color="#F9B32A"/>
<stop offset="0.6116" stop-color="#FCC04A"/>
<stop offset="0.6266" stop-color="#FECA62"/>
<stop offset="0.6405" stop-color="#FFCF70"/>
<stop offset="0.6525" stop-color="#FFD175"/>
<stop offset="0.6631" stop-color="#FECD6C"/>
<stop offset="0.6806" stop-color="#FDC453"/>
<stop offset="0.7028" stop-color="#FBB42A"/>
<stop offset="0.7077" stop-color="#FAB020"/>
<stop offset="0.9122" stop-color="#FFC753"/>
<stop offset="1" stop-color="#FFEB7C"/>
</linearGradient>
<linearGradient id="paint45_linear_8_1753" x1="322.583" y1="206.802" x2="316.687" y2="209.555" gradientUnits="userSpaceOnUse">
<stop stop-color="#E99200"/>
<stop offset="0.2038" stop-color="#B94108"/>
<stop offset="0.2784" stop-color="#C34C04"/>
<stop offset="0.5799" stop-color="#F6A300"/>
<stop offset="0.5959" stop-color="#F9B32A"/>
<stop offset="0.6116" stop-color="#FCC04A"/>
<stop offset="0.6266" stop-color="#FECA62"/>
<stop offset="0.6405" stop-color="#FFCF70"/>
<stop offset="0.6525" stop-color="#FFD175"/>
<stop offset="0.6631" stop-color="#FECD6C"/>
<stop offset="0.6806" stop-color="#FDC453"/>
<stop offset="0.7028" stop-color="#FBB42A"/>
<stop offset="0.7077" stop-color="#FAB020"/>
<stop offset="0.9122" stop-color="#FFC753"/>
<stop offset="1" stop-color="#FFEB7C"/>
</linearGradient>
</defs>
</svg>
