<svg width="24" height="24" viewBox="0 0 24 24" fill="none" xmlns="http://www.w3.org/2000/svg">
<g clip-path="url(#clip0_1012_49647)">
<path fill-rule="evenodd" clip-rule="evenodd" d="M9.08036 23.6583C15.5098 25.2614 22.0209 21.3491 23.6236 14.9204H23.6236L23.6234 14.9206C25.2263 8.49162 21.3142 1.97935 14.8853 0.376659C8.45786 -1.22603 1.94669 2.68661 0.344711 9.11595C-1.25868 15.5441 2.65366 22.0556 9.08036 23.6583ZM14.6521 7.26233C16.3146 7.83498 17.5304 8.6934 17.2915 10.2903L17.2916 10.2902L17.292 10.2905C17.1192 11.4595 16.4711 12.0254 15.6107 12.2238C16.792 12.8389 17.3932 13.7821 16.8205 15.4172C16.1099 17.4482 14.4215 17.6196 12.1761 17.1946L11.6312 19.3785L10.3144 19.0504L10.8522 16.8958C10.5108 16.811 10.1621 16.721 9.80277 16.6235L9.26315 18.7883L7.94787 18.4601L8.49277 16.2721C8.36622 16.2398 8.23886 16.2066 8.11058 16.1731C7.92703 16.1253 7.74159 16.077 7.55394 16.0299L5.84034 15.6027L6.49411 14.0954C6.49411 14.0954 7.46438 14.3534 7.45118 14.3342C7.82399 14.4266 7.9894 14.1834 8.05456 14.0214L8.91567 10.5692C8.95037 10.5775 8.98416 10.5859 9.01667 10.5941C9.02961 10.5973 9.04235 10.6005 9.05486 10.6036C9.00231 10.5825 8.95468 10.569 8.91796 10.5597L9.53231 8.09529C9.54833 7.81551 9.4519 7.46252 8.91867 7.32943C8.93925 7.31565 7.9623 7.09171 7.9623 7.09171L8.31258 5.68528L10.1285 6.13874L10.127 6.14554C10.3999 6.21347 10.6813 6.27793 10.9678 6.34315L11.5074 4.18066L12.8234 4.50878L12.2945 6.62892C12.6479 6.70957 13.0034 6.79092 13.3496 6.87726L13.8746 4.77103L15.1914 5.09914L14.6521 7.26233ZM10.4869 15.1054C11.5613 15.3891 13.9096 16.0094 14.2829 14.5091H14.283C14.6655 12.9754 12.3885 12.4644 11.2771 12.2149C11.1528 12.1871 11.0431 12.1624 10.9533 12.14L10.2302 15.0387C10.3039 15.057 10.3903 15.0798 10.4869 15.1054ZM11.5001 10.8696C12.3958 11.1087 14.3499 11.6302 14.6902 10.2666H14.6903C15.0378 8.8721 13.1388 8.45166 12.2113 8.24631C12.107 8.22321 12.0149 8.20283 11.9397 8.1841L11.2842 10.8131C11.3461 10.8285 11.4187 10.8479 11.5001 10.8696Z" fill="#6F767E"/>
</g>
<defs>
<clipPath id="clip0_1012_49647">
<rect width="24" height="24" fill="white"/>
</clipPath>
</defs>
</svg>
