<svg width="32" height="32" viewBox="0 0 32 32" fill="none" xmlns="http://www.w3.org/2000/svg">
<path d="M16 32C24.8366 32 32 24.8366 32 16C32 7.16344 24.8366 0 16 0C7.16344 0 0 7.16344 0 16C0 24.8366 7.16344 32 16 32Z" fill="#0AC18E"/>
<path d="M20.991 10.6274C20.1869 8.80409 18.3392 8.41424 16.0773 8.7919L15.3504 5.97363L13.6367 6.41627L14.3514 9.22642C13.9006 9.34013 13.4377 9.43759 12.9788 9.56754L12.2641 6.77363L10.5504 7.21627L11.2773 10.0345C10.9077 10.1401 7.81738 10.932 7.81738 10.932L8.28845 12.7675C8.28845 12.7675 9.54733 12.4142 9.53515 12.4427C10.2336 12.2599 10.5626 12.6092 10.7169 12.9381L12.7148 20.6619C12.7392 20.8853 12.6986 21.267 12.2194 21.397C12.2478 21.4132 10.9727 21.7178 10.9727 21.7178L11.1595 23.8579C11.1595 23.8579 14.2214 23.0741 14.6235 22.9726L15.3585 25.8234L17.0722 25.3807L16.3372 22.5097C16.8082 22.4 17.2671 22.2863 17.7138 22.1685L18.4448 25.0234L20.1585 24.5807L19.4235 21.734C22.0631 21.0924 23.927 19.4274 23.5453 16.8812C23.3016 15.3462 21.6245 14.0873 20.2316 13.9452C21.0884 13.1858 21.523 12.0772 20.991 10.6274ZM20.1666 17.3482C20.5077 19.8701 17.0032 20.1787 15.8458 20.4833L14.8387 16.7107C16.0001 16.4061 19.59 15.1269 20.1666 17.3482ZM18.0549 12.2112C18.4164 14.4528 15.4194 14.7127 14.4529 14.9604L13.5351 11.5371C14.5057 11.2975 17.3199 10.1361 18.0549 12.2112Z" fill="white"/>
</svg>
