<svg width="32" height="32" viewBox="0 0 32 32" fill="none" xmlns="http://www.w3.org/2000/svg">
<g clip-path="url(#clip0_1030_39817)">
<path d="M16 32C24.8366 32 32 24.8366 32 16C32 7.16344 24.8366 0 16 0C7.16344 0 0 7.16344 0 16C0 24.8366 7.16344 32 16 32Z" fill="#138EFF"/>
<circle cx="16" cy="16" r="16" fill="#138EFF"/>
<path d="M21.8735 17.5989C22.7033 17.8893 23.3533 18.3457 23.8235 18.968C24.2937 19.5765 24.5288 20.3164 24.5288 21.1877C24.5288 22.46 24.0171 23.442 22.9937 24.1335C21.9703 24.8249 20.4905 25.1707 18.5543 25.1707H11.8329C10.7991 25.1707 10.0414 24.1978 10.2947 23.1954L10.7128 21.5404V17.91V10.6494H18.1394C19.9926 10.6494 21.4033 10.9952 22.3714 11.6866C23.3394 12.3643 23.8235 13.284 23.8235 14.4457C23.8235 15.1372 23.6506 15.7595 23.3049 16.3127C22.9729 16.8521 22.4958 17.2808 21.8735 17.5989ZM14.7788 13.6159V16.4164H17.6001C18.9831 16.4164 19.6745 15.9462 19.6745 15.0058C19.6745 14.0792 18.9831 13.6159 17.6001 13.6159H14.7788ZM18.2224 22.2042C19.6607 22.2042 20.3799 21.7132 20.3799 20.7313C20.3799 19.7494 19.6607 19.2585 18.2224 19.2585H14.7788V22.2042H18.2224Z" fill="white"/>
<ellipse cx="13.1872" cy="8.21918" rx="1.83456" ry="4.58641" transform="rotate(-14.175 13.1872 8.21918)" fill="white"/>
<ellipse cx="9.47046" cy="10.3332" rx="1.83456" ry="4.58641" transform="rotate(-49.1934 9.47046 10.3332)" fill="white"/>
</g>
<defs>
<clipPath id="clip0_1030_39817">
<rect width="32" height="32" fill="white"/>
</clipPath>
</defs>
</svg>
