<svg width="117" height="78" viewBox="0 0 117 78" fill="none" xmlns="http://www.w3.org/2000/svg">
<path d="M27.6858 24.1303C29.0313 24.6013 30.0853 25.3413 30.8478 26.3505C31.6103 27.3372 31.9915 28.537 31.9915 29.9498C31.9915 32.013 31.1618 33.6053 29.5022 34.7265C27.8427 35.8478 25.4432 36.4085 22.3035 36.4085H11.9207C9.98222 36.4085 8.56158 34.5842 9.03645 32.7049L9.58808 30.5217V24.6349V12.8613H21.6308C24.6358 12.8613 26.9233 13.422 28.4931 14.5433C30.0629 15.6421 30.8478 17.1335 30.8478 19.0172C30.8478 20.1385 30.5675 21.1477 30.0068 22.0447C29.4686 22.9193 28.6949 23.6145 27.6858 24.1303ZM16.1813 17.6717V22.2129H20.7562C22.9987 22.2129 24.12 21.4504 24.12 19.9255C24.12 18.4229 22.9987 17.6717 20.7562 17.6717H16.1813ZM21.7653 31.5981C24.0976 31.5981 25.2638 30.802 25.2638 29.2098C25.2638 27.6175 24.0976 26.8214 21.7653 26.8214H16.1813V31.5981H21.7653Z" fill="white"/>
<path d="M49.1776 18.1763C50.8206 18.1763 52.1525 19.5081 52.1525 21.1511V33.4336C52.1525 35.0766 50.8206 36.4085 49.1776 36.4085H48.0149C46.9374 36.4085 46.0639 35.535 46.0639 34.4574V34.4574C45.3911 35.1975 44.5838 35.7581 43.6419 36.1394C42.7 36.5206 41.702 36.7112 40.648 36.7112C38.2933 36.7112 36.4095 36.016 34.9967 34.6256C33.6063 33.2352 32.9111 31.1496 32.9111 28.3688V21.1511C32.9111 19.5081 34.243 18.1763 35.886 18.1763H36.3276C37.9706 18.1763 39.3025 19.5081 39.3025 21.1511V27.326C39.3025 28.694 39.5604 29.6919 40.0762 30.3199C40.592 30.9478 41.3432 31.2618 42.33 31.2618C43.3391 31.2618 44.1577 30.9141 44.7856 30.2189C45.4359 29.5013 45.7611 28.4137 45.7611 26.956V21.1511C45.7611 19.5081 47.093 18.1763 48.736 18.1763H49.1776Z" fill="white"/>
<path d="M65.9836 17.8735C68.2486 17.8735 70.0651 18.5463 71.4331 19.8918C72.8235 21.2374 73.5187 23.2669 73.5187 25.9805V33.4336C73.5187 35.0766 72.1868 36.4085 70.5438 36.4085H70.1022C68.4592 36.4085 67.1273 35.0766 67.1273 33.4336V27.0233C67.1273 24.534 66.1294 23.2894 64.1335 23.2894C63.0346 23.2894 62.1488 23.6482 61.476 24.3658C60.8256 25.0834 60.5005 26.1599 60.5005 27.5951V33.4336C60.5005 35.0766 59.1686 36.4085 57.5256 36.4085H57.084C55.441 36.4085 54.1091 35.0766 54.1091 33.4336V21.1511C54.1091 19.5081 55.441 18.1763 57.084 18.1763H58.213C59.3091 18.1763 60.1977 19.0648 60.1977 20.1609V20.1609C60.9153 19.4209 61.7675 18.8602 62.7543 18.479C63.741 18.0753 64.8174 17.8735 65.9836 17.8735Z" fill="white"/>
<path d="M87.2457 17.8735C89.5107 17.8735 91.3272 18.5463 92.6952 19.8918C94.0856 21.2374 94.7808 23.2669 94.7808 25.9805V33.4336C94.7808 35.0766 93.4489 36.4085 91.806 36.4085H91.3643C89.7213 36.4085 88.3894 35.0766 88.3894 33.4336V27.0233C88.3894 24.534 87.3915 23.2894 85.3956 23.2894C84.2967 23.2894 83.4109 23.6482 82.7381 24.3658C82.0878 25.0834 81.7626 26.1599 81.7626 27.5951V33.4336C81.7626 35.0766 80.4307 36.4085 78.7877 36.4085H78.3461C76.7031 36.4085 75.3712 35.0766 75.3712 33.4336V21.1511C75.3712 19.5081 76.7031 18.1763 78.3461 18.1763H79.4752C80.5713 18.1763 81.4598 19.0648 81.4598 20.1609V20.1609C82.1775 19.4209 83.0297 18.8602 84.0164 18.479C85.0031 18.0753 86.0796 17.8735 87.2457 17.8735Z" fill="white"/>
<path d="M112.801 18.1763C114.8 18.1763 116.157 20.2082 115.391 22.0545L109.129 37.1485C108.209 39.3911 107.088 40.9609 105.765 41.858C104.442 42.7774 102.827 43.2372 100.921 43.2372C99.9564 43.2372 98.9808 43.0802 97.9941 42.7662C97.7326 42.6872 97.4842 42.6007 97.2491 42.5067C96.2387 42.1032 95.9827 40.8971 96.4663 39.9225L97.1907 38.4626C97.5239 37.7912 98.4334 37.6324 99.1378 37.8886V37.8886C99.6536 38.0904 100.169 38.1913 100.685 38.1913C101.291 38.1913 101.784 38.068 102.165 37.8213C102.569 37.5746 102.905 37.1822 103.174 36.644L97.1168 22.3091C96.2879 20.3478 97.7707 18.1763 99.8999 18.1763V18.1763C101.115 18.1763 102.227 18.9148 102.68 20.042L106.404 29.3107L110.202 19.9279C110.631 18.8692 111.659 18.1763 112.801 18.1763V18.1763Z" fill="white"/>
<path d="M23.9324 50.9756H27.279V58.5666C26.2995 59.3465 25.1567 59.9451 23.8508 60.3623C22.5448 60.7795 21.2025 60.9881 19.824 60.9881C17.8832 60.9881 16.1328 60.5709 14.5729 59.7365C13.013 58.884 11.7886 57.7141 10.8998 56.2267C10.011 54.7394 9.56665 53.0615 9.56665 51.1933C9.56665 49.325 10.011 47.6472 10.8998 46.1598C11.7886 44.6724 13.013 43.5116 14.5729 42.6772C16.151 41.8247 17.9195 41.3984 19.8784 41.3984C21.4746 41.3984 22.9257 41.6614 24.2317 42.1875C25.5377 42.7135 26.635 43.4844 27.5238 44.5001L25.2928 46.6768C23.8417 45.2257 22.0913 44.5001 20.0417 44.5001C18.6994 44.5001 17.5023 44.7813 16.4502 45.3436C15.4163 45.9059 14.6001 46.6949 14.0015 47.7107C13.4211 48.7264 13.1309 49.8873 13.1309 51.1933C13.1309 52.463 13.4211 53.6057 14.0015 54.6215C14.6001 55.6372 15.4163 56.4353 16.4502 57.0157C17.5023 57.5962 18.6904 57.8864 20.0145 57.8864C21.5018 57.8864 22.8078 57.5599 23.9324 56.9069V50.9756Z" fill="#138EFF"/>
<path d="M36.3517 46.0238C38.4921 46.0238 40.1245 46.5407 41.2491 47.5746C42.3919 48.5904 42.9632 50.1322 42.9632 52.2V60.716H39.7527V58.9475C39.3355 59.5824 38.7369 60.0721 37.957 60.4167C37.1952 60.7432 36.2701 60.9065 35.1818 60.9065C34.0935 60.9065 33.1412 60.7251 32.325 60.3623C31.5087 59.9814 30.8739 59.4645 30.4204 58.8115C29.9851 58.1403 29.7674 57.3876 29.7674 56.5532C29.7674 55.2472 30.2481 54.2043 31.2094 53.4243C32.1889 52.6262 33.7216 52.2272 35.8076 52.2272H39.5622V52.0095C39.5622 50.9937 39.2539 50.2138 38.6372 49.6696C38.0386 49.1255 37.1407 48.8534 35.9436 48.8534C35.1274 48.8534 34.3202 48.9804 33.5221 49.2343C32.7421 49.4882 32.0801 49.8419 31.5359 50.2954L30.2027 47.8195C30.9646 47.2391 31.8806 46.7947 32.9507 46.4863C34.0209 46.178 35.1546 46.0238 36.3517 46.0238ZM35.8892 58.4306C36.7417 58.4306 37.4944 58.2401 38.1474 57.8592C38.8186 57.4601 39.2902 56.8978 39.5622 56.1723V54.4854H36.0524C34.0935 54.4854 33.114 55.1293 33.114 56.4172C33.114 57.0339 33.3589 57.5236 33.8486 57.8864C34.3383 58.2492 35.0185 58.4306 35.8892 58.4306Z" fill="#138EFF"/>
<path d="M64.8498 46.0238C66.6818 46.0238 68.1329 46.5589 69.2031 47.629C70.2732 48.6811 70.8083 50.2682 70.8083 52.3904V60.716H67.4074V52.8257C67.4074 51.556 67.1262 50.6038 66.5639 49.9689C66.0016 49.3159 65.1944 48.9894 64.1424 48.9894C62.9997 48.9894 62.0837 49.3703 61.3944 50.1322C60.7052 50.8758 60.3605 51.946 60.3605 53.3427V60.716H56.9595V52.8257C56.9595 51.556 56.6784 50.6038 56.1161 49.9689C55.5538 49.3159 54.7466 48.9894 53.6946 48.9894C52.5337 48.9894 51.6087 49.3613 50.9194 50.105C50.2483 50.8486 49.9127 51.9279 49.9127 53.3427V60.716H46.5117V46.187H49.7495V48.0372C50.2936 47.3842 50.9738 46.8854 51.79 46.5407C52.6063 46.1961 53.5132 46.0238 54.5108 46.0238C55.5991 46.0238 56.5605 46.2324 57.3949 46.6496C58.2474 47.0486 58.9185 47.6472 59.4082 48.4453C60.0068 47.6835 60.7777 47.0939 61.7209 46.6768C62.6641 46.2414 63.7071 46.0238 64.8498 46.0238Z" fill="#138EFF"/>
<path d="M88.1293 53.5331C88.1293 53.7689 88.1112 54.1045 88.0749 54.5398H76.6748C76.8743 55.61 77.3913 56.4625 78.2257 57.0974C79.0782 57.7141 80.1302 58.0224 81.3818 58.0224C82.978 58.0224 84.293 57.4964 85.3269 56.4444L87.1498 58.5394C86.4968 59.3193 85.6715 59.9088 84.6739 60.3079C83.6763 60.7069 82.5517 60.9065 81.3001 60.9065C79.7039 60.9065 78.2982 60.589 77.0829 59.9542C75.8676 59.3193 74.9244 58.4396 74.2533 57.315C73.6003 56.1723 73.2738 54.8845 73.2738 53.4515C73.2738 52.0367 73.5913 50.767 74.2261 49.6424C74.8791 48.4997 75.777 47.6109 76.9197 46.976C78.0624 46.3412 79.3502 46.0238 80.7832 46.0238C82.198 46.0238 83.4586 46.3412 84.5651 46.976C85.6897 47.5928 86.5603 48.4725 87.177 49.6152C87.8119 50.7398 88.1293 52.0458 88.1293 53.5331ZM80.7832 48.7446C79.6949 48.7446 78.7698 49.0711 78.008 49.724C77.2643 50.3589 76.8108 51.2114 76.6476 52.2816H84.8916C84.7465 51.2295 84.3021 50.377 83.5584 49.724C82.8147 49.0711 81.8896 48.7446 80.7832 48.7446Z" fill="#138EFF"/>
<ellipse cx="13.6003" cy="8.92068" rx="2.97486" ry="7.43715" transform="rotate(-14.175 13.6003 8.92068)" fill="white"/>
<ellipse cx="7.57342" cy="12.3487" rx="2.97486" ry="7.43715" transform="rotate(-49.1934 7.57342 12.3487)" fill="white"/>
<path d="M11.2366 70.7802V68.5889H13.0707C13.2702 68.5889 13.4569 68.6018 13.6306 68.6275C13.8108 68.6468 13.9685 68.6951 14.1036 68.7723C14.2388 68.8495 14.3449 68.9589 14.4222 69.1005C14.4994 69.2421 14.538 69.4352 14.538 69.6797C14.538 70.0465 14.4222 70.3233 14.1905 70.5099C13.9653 70.6901 13.592 70.7802 13.0707 70.7802H11.2366ZM10.3196 67.8167V74.709H13.6499C13.991 74.709 14.2902 74.6543 14.5477 74.5449C14.8115 74.429 15.0303 74.281 15.2041 74.1008C15.3843 73.9142 15.5194 73.7018 15.6095 73.4637C15.6996 73.2256 15.7446 72.9811 15.7446 72.7301C15.7446 72.3054 15.632 71.945 15.4068 71.6489C15.1815 71.3529 14.8566 71.1599 14.4318 71.0698V71.0505C14.76 70.9217 15.011 70.7255 15.1848 70.4616C15.365 70.1913 15.4551 69.8728 15.4551 69.506C15.4551 69.1584 15.3746 68.8656 15.2137 68.6275C15.0593 68.3894 14.8694 68.2028 14.6442 68.0676C14.5412 68.0033 14.4157 67.955 14.2677 67.9228C14.1261 67.8907 13.9717 67.8681 13.8044 67.8553C13.637 67.836 13.4665 67.8263 13.2928 67.8263C13.1254 67.8199 12.9678 67.8167 12.8198 67.8167H10.3196ZM11.2366 73.9367V71.5524H13.3314C13.5244 71.5524 13.7111 71.5717 13.8912 71.6103C14.0714 71.6425 14.2291 71.7036 14.3642 71.7937C14.5058 71.8774 14.6184 71.9932 14.7021 72.1413C14.7858 72.2893 14.8276 72.4759 14.8276 72.7011C14.8276 73.0873 14.7118 73.3897 14.4801 73.6085C14.2548 73.8273 13.9395 73.9367 13.5341 73.9367H11.2366ZM16.5514 67.8167V74.709H17.3719V67.8167H16.5514ZM18.9519 72.2185C18.9519 71.916 18.9905 71.6489 19.0677 71.4173C19.1514 71.1792 19.264 70.9797 19.4056 70.8188C19.5472 70.6579 19.7113 70.5356 19.8979 70.452C20.091 70.3683 20.2937 70.3265 20.506 70.3265C20.7184 70.3265 20.9179 70.3683 21.1045 70.452C21.2976 70.5356 21.4649 70.6579 21.6065 70.8188C21.7481 70.9797 21.8575 71.1792 21.9347 71.4173C22.0184 71.6489 22.0602 71.916 22.0602 72.2185C22.0602 72.5209 22.0184 72.7912 21.9347 73.0293C21.8575 73.261 21.7481 73.4573 21.6065 73.6182C21.4649 73.7726 21.2976 73.8917 21.1045 73.9753C20.9179 74.059 20.7184 74.1008 20.506 74.1008C20.2937 74.1008 20.091 74.059 19.8979 73.9753C19.7113 73.8917 19.5472 73.7726 19.4056 73.6182C19.264 73.4573 19.1514 73.261 19.0677 73.0293C18.9905 72.7912 18.9519 72.5209 18.9519 72.2185ZM18.0831 72.2185C18.0831 72.5853 18.1346 72.9264 18.2376 73.2417C18.3405 73.557 18.495 73.8338 18.7009 74.0719C18.9068 74.3036 19.161 74.487 19.4635 74.6221C19.766 74.7508 20.1135 74.8152 20.506 74.8152C20.905 74.8152 21.2526 74.7508 21.5486 74.6221C21.851 74.487 22.1052 74.3036 22.3112 74.0719C22.5171 73.8338 22.6716 73.557 22.7745 73.2417C22.8775 72.9264 22.929 72.5853 22.929 72.2185C22.929 71.8517 22.8775 71.5106 22.7745 71.1953C22.6716 70.8735 22.5171 70.5968 22.3112 70.3651C22.1052 70.127 21.851 69.9403 21.5486 69.8052C21.2526 69.6701 20.905 69.6025 20.506 69.6025C20.1135 69.6025 19.766 69.6701 19.4635 69.8052C19.161 69.9403 18.9068 70.127 18.7009 70.3651C18.495 70.5968 18.3405 70.8735 18.2376 71.1953C18.1346 71.5106 18.0831 71.8517 18.0831 72.2185ZM26.995 71.3207H27.8445C27.8123 71.0247 27.7351 70.7705 27.6128 70.5581C27.4906 70.3393 27.3329 70.1591 27.1398 70.0176C26.9532 69.876 26.7344 69.773 26.4834 69.7087C26.2389 69.6379 25.975 69.6025 25.6919 69.6025C25.2993 69.6025 24.955 69.6733 24.659 69.8149C24.363 69.95 24.1152 70.1398 23.9157 70.3844C23.7226 70.6225 23.5778 70.9057 23.4813 71.2339C23.3848 71.5556 23.3365 71.9031 23.3365 72.2764C23.3365 72.6497 23.3848 72.9939 23.4813 73.3093C23.5843 73.6182 23.7323 73.8853 23.9254 74.1105C24.1249 74.3357 24.3694 74.5095 24.659 74.6318C24.955 74.754 25.2929 74.8152 25.6726 74.8152C26.3097 74.8152 26.8116 74.6478 27.1785 74.3132C27.5517 73.9786 27.7834 73.5023 27.8735 72.8845H27.0337C26.9822 73.2707 26.8406 73.5699 26.6089 73.7823C26.3837 73.9947 26.0683 74.1008 25.6629 74.1008C25.4055 74.1008 25.1835 74.0494 24.9969 73.9464C24.8102 73.8434 24.659 73.7083 24.5432 73.541C24.4273 73.3672 24.3404 73.1709 24.2825 72.9521C24.231 72.7333 24.2053 72.5081 24.2053 72.2764C24.2053 72.0254 24.231 71.7841 24.2825 71.5524C24.334 71.3143 24.4177 71.1052 24.5335 70.925C24.6558 70.7448 24.8167 70.6 25.0162 70.4906C25.2157 70.3812 25.4634 70.3265 25.7595 70.3265C26.107 70.3265 26.3837 70.4133 26.5896 70.5871C26.7956 70.7609 26.9307 71.0054 26.995 71.3207ZM28.5503 67.8167V74.709H29.3708V72.817L30.143 72.1026L31.8516 74.709H32.8942L30.7705 71.5331L32.7494 69.7183H31.6489L29.3708 71.8999V67.8167H28.5503ZM36.6063 71.3207H37.4558C37.4236 71.0247 37.3464 70.7705 37.2241 70.5581C37.1018 70.3393 36.9442 70.1591 36.7511 70.0176C36.5645 69.876 36.3457 69.773 36.0947 69.7087C35.8501 69.6379 35.5863 69.6025 35.3031 69.6025C34.9106 69.6025 34.5663 69.6733 34.2703 69.8149C33.9742 69.95 33.7265 70.1398 33.527 70.3844C33.3339 70.6225 33.1891 70.9057 33.0926 71.2339C32.996 71.5556 32.9478 71.9031 32.9478 72.2764C32.9478 72.6497 32.996 72.9939 33.0926 73.3093C33.1955 73.6182 33.3436 73.8853 33.5366 74.1105C33.7361 74.3357 33.9807 74.5095 34.2703 74.6318C34.5663 74.754 34.9041 74.8152 35.2838 74.8152C35.9209 74.8152 36.4229 74.6478 36.7897 74.3132C37.163 73.9786 37.3946 73.5023 37.4847 72.8845H36.6449C36.5934 73.2707 36.4519 73.5699 36.2202 73.7823C35.9949 73.9947 35.6796 74.1008 35.2742 74.1008C35.0168 74.1008 34.7947 74.0494 34.6081 73.9464C34.4215 73.8434 34.2703 73.7083 34.1544 73.541C34.0386 73.3672 33.9517 73.1709 33.8938 72.9521C33.8423 72.7333 33.8166 72.5081 33.8166 72.2764C33.8166 72.0254 33.8423 71.7841 33.8938 71.5524C33.9453 71.3143 34.0289 71.1052 34.1448 70.925C34.267 70.7448 34.4279 70.6 34.6274 70.4906C34.8269 70.3812 35.0747 70.3265 35.3707 70.3265C35.7182 70.3265 35.9949 70.4133 36.2009 70.5871C36.4068 70.7609 36.542 71.0054 36.6063 71.3207ZM38.1133 67.8167V74.709H38.9338V71.8903C38.9338 71.665 38.9627 71.4591 39.0206 71.2725C39.085 71.0794 39.1783 70.9121 39.3006 70.7705C39.4229 70.6289 39.5741 70.5195 39.7543 70.4423C39.9409 70.3651 40.1597 70.3265 40.4107 70.3265C40.726 70.3265 40.9738 70.4166 41.154 70.5968C41.3342 70.7769 41.4243 71.0215 41.4243 71.3304V74.709H42.2448V71.4269C42.2448 71.1566 42.2158 70.9121 42.1579 70.6933C42.1064 70.468 42.0131 70.275 41.878 70.1141C41.7428 69.9532 41.5658 69.8277 41.347 69.7376C41.1282 69.6475 40.8547 69.6025 40.5265 69.6025C40.3785 69.6025 40.2241 69.6186 40.0632 69.6508C39.9087 69.6829 39.7575 69.7344 39.6095 69.8052C39.4679 69.8696 39.3392 69.9564 39.2234 70.0658C39.1075 70.1688 39.0174 70.2975 38.9531 70.452H38.9338V67.8167H38.1133ZM47.6087 74.6897C47.4671 74.7733 47.2708 74.8152 47.0198 74.8152C46.8075 74.8152 46.6369 74.7572 46.5082 74.6414C46.3859 74.5191 46.3248 74.3229 46.3248 74.0526C46.0996 74.3229 45.8357 74.5191 45.5333 74.6414C45.2372 74.7572 44.9155 74.8152 44.5679 74.8152C44.3427 74.8152 44.1271 74.7894 43.9212 74.7379C43.7217 74.6865 43.5479 74.606 43.3999 74.4966C43.2519 74.3872 43.1328 74.2456 43.0428 74.0719C42.9591 73.8917 42.9173 73.6761 42.9173 73.4251C42.9173 73.142 42.9655 72.9103 43.0621 72.7301C43.1586 72.5499 43.2841 72.4051 43.4385 72.2957C43.5994 72.1799 43.7796 72.093 43.9791 72.0351C44.185 71.9772 44.3942 71.9289 44.6066 71.8903C44.8318 71.8452 45.0442 71.813 45.2437 71.7937C45.4496 71.768 45.6298 71.7358 45.7842 71.6972C45.9387 71.6522 46.061 71.591 46.1511 71.5138C46.2411 71.4301 46.2862 71.3111 46.2862 71.1566C46.2862 70.9764 46.2508 70.8316 46.18 70.7222C46.1157 70.6128 46.0288 70.5292 45.9194 70.4713C45.8164 70.4133 45.6974 70.3747 45.5622 70.3554C45.4335 70.3361 45.3048 70.3265 45.1761 70.3265C44.8286 70.3265 44.539 70.394 44.3073 70.5292C44.0756 70.6579 43.9501 70.9057 43.9308 71.2725H43.1103C43.1232 70.9636 43.1875 70.7029 43.3034 70.4906C43.4192 70.2782 43.5737 70.1077 43.7667 69.979C43.9598 69.8438 44.1786 69.7473 44.4231 69.6894C44.6741 69.6314 44.9412 69.6025 45.2244 69.6025C45.4496 69.6025 45.6716 69.6186 45.8904 69.6508C46.1157 69.6829 46.3184 69.7505 46.4986 69.8535C46.6788 69.95 46.8236 70.0884 46.933 70.2686C47.0424 70.4487 47.0971 70.6836 47.0971 70.9732V73.541C47.0971 73.734 47.1067 73.8756 47.126 73.9657C47.1518 74.0558 47.229 74.1008 47.3577 74.1008C47.4285 74.1008 47.5121 74.0847 47.6087 74.0526V74.6897ZM46.2765 72.1316C46.1736 72.2088 46.0384 72.2667 45.8711 72.3054C45.7038 72.3375 45.5268 72.3665 45.3402 72.3922C45.16 72.4115 44.9766 72.4373 44.79 72.4695C44.6033 72.4952 44.436 72.5403 44.288 72.6046C44.14 72.669 44.0177 72.7623 43.9212 72.8845C43.8311 73.0004 43.786 73.1613 43.786 73.3672C43.786 73.5023 43.8118 73.6182 43.8633 73.7147C43.9212 73.8048 43.992 73.8788 44.0756 73.9367C44.1657 73.9947 44.2687 74.0365 44.3845 74.0622C44.5004 74.088 44.6226 74.1008 44.7514 74.1008C45.0216 74.1008 45.2533 74.0654 45.4464 73.9947C45.6394 73.9174 45.7971 73.8241 45.9194 73.7147C46.0417 73.5989 46.1317 73.4766 46.1897 73.3479C46.2476 73.2128 46.2765 73.0873 46.2765 72.9714V72.1316ZM48.9515 68.8206V67.8167H48.131V68.8206H48.9515ZM48.131 69.7183V74.709H48.9515V69.7183H48.131ZM49.933 69.7183V74.709H50.7536V71.8903C50.7536 71.665 50.7825 71.4591 50.8404 71.2725C50.9048 71.0794 50.9981 70.9121 51.1204 70.7705C51.2426 70.6289 51.3939 70.5195 51.5741 70.4423C51.7607 70.3651 51.9795 70.3265 52.2305 70.3265C52.5458 70.3265 52.7936 70.4166 52.9738 70.5968C53.154 70.7769 53.2441 71.0215 53.2441 71.3304V74.709H54.0646V71.4269C54.0646 71.1566 54.0356 70.9121 53.9777 70.6933C53.9262 70.468 53.8329 70.275 53.6978 70.1141C53.5626 69.9532 53.3856 69.8277 53.1668 69.7376C52.948 69.6475 52.6745 69.6025 52.3463 69.6025C51.6062 69.6025 51.0657 69.905 50.7246 70.5099H50.7053V69.7183H49.933ZM62.3854 69.8921H63.3025C63.251 69.5253 63.1416 69.2035 62.9742 68.9268C62.8069 68.6436 62.5978 68.4087 62.3468 68.2221C62.0958 68.0355 61.8094 67.8939 61.4877 67.7974C61.1659 67.7008 60.8248 67.6526 60.4644 67.6526C59.9367 67.6526 59.4669 67.7491 59.0551 67.9422C58.6496 68.1288 58.3086 68.3862 58.0319 68.7144C57.7616 69.0426 57.5556 69.4287 57.4141 69.8728C57.2725 70.3104 57.2017 70.7802 57.2017 71.2821C57.2017 71.7841 57.266 72.2539 57.3947 72.6915C57.5299 73.1291 57.7294 73.5088 57.9932 73.8306C58.2571 74.1523 58.5885 74.4065 58.9875 74.5931C59.3865 74.7733 59.8531 74.8634 60.3872 74.8634C61.2689 74.8634 61.9639 74.6221 62.4723 74.1395C62.9807 73.6568 63.2799 72.9811 63.37 72.1123H62.453C62.4337 72.3955 62.3758 72.6593 62.2792 72.9039C62.1827 73.1484 62.0475 73.3608 61.8738 73.541C61.7065 73.7147 61.5038 73.8531 61.2656 73.956C61.034 74.0526 60.7669 74.1008 60.4644 74.1008C60.0526 74.1008 59.6986 74.0236 59.4026 73.8692C59.1066 73.7147 58.862 73.5088 58.669 73.2514C58.4823 72.9875 58.344 72.6818 58.2539 72.3343C58.1638 71.9804 58.1187 71.6071 58.1187 71.2146C58.1187 70.8542 58.1638 70.5067 58.2539 70.172C58.344 69.8374 58.4823 69.5413 58.669 69.2839C58.862 69.0201 59.1033 68.8109 59.3929 68.6565C59.689 68.502 60.0429 68.4248 60.4548 68.4248C60.9374 68.4248 61.3525 68.5471 61.7 68.7916C62.054 69.0362 62.2824 69.403 62.3854 69.8921ZM68.5024 74.6897C68.3608 74.7733 68.1645 74.8152 67.9135 74.8152C67.7012 74.8152 67.5306 74.7572 67.4019 74.6414C67.2797 74.5191 67.2185 74.3229 67.2185 74.0526C66.9933 74.3229 66.7294 74.5191 66.427 74.6414C66.1309 74.7572 65.8092 74.8152 65.4617 74.8152C65.2364 74.8152 65.0208 74.7894 64.8149 74.7379C64.6154 74.6865 64.4416 74.606 64.2936 74.4966C64.1456 74.3872 64.0266 74.2456 63.9365 74.0719C63.8528 73.8917 63.811 73.6761 63.811 73.4251C63.811 73.142 63.8592 72.9103 63.9558 72.7301C64.0523 72.5499 64.1778 72.4051 64.3322 72.2957C64.4931 72.1799 64.6733 72.093 64.8728 72.0351C65.0788 71.9772 65.2879 71.9289 65.5003 71.8903C65.7255 71.8452 65.9379 71.813 66.1374 71.7937C66.3433 71.768 66.5235 71.7358 66.678 71.6972C66.8324 71.6522 66.9547 71.591 67.0448 71.5138C67.1349 71.4301 67.1799 71.3111 67.1799 71.1566C67.1799 70.9764 67.1445 70.8316 67.0737 70.7222C67.0094 70.6128 66.9225 70.5292 66.8131 70.4713C66.7101 70.4133 66.5911 70.3747 66.4559 70.3554C66.3272 70.3361 66.1985 70.3265 66.0698 70.3265C65.7223 70.3265 65.4327 70.394 65.201 70.5292C64.9693 70.6579 64.8439 70.9057 64.8246 71.2725H64.004C64.0169 70.9636 64.0813 70.7029 64.1971 70.4906C64.3129 70.2782 64.4674 70.1077 64.6604 69.979C64.8535 69.8438 65.0723 69.7473 65.3169 69.6894C65.5678 69.6314 65.8349 69.6025 66.1181 69.6025C66.3433 69.6025 66.5653 69.6186 66.7841 69.6508C67.0094 69.6829 67.2121 69.7505 67.3923 69.8535C67.5725 69.95 67.7173 70.0884 67.8267 70.2686C67.9361 70.4487 67.9908 70.6836 67.9908 70.9732V73.541C67.9908 73.734 68.0004 73.8756 68.0197 73.9657C68.0455 74.0558 68.1227 74.1008 68.2514 74.1008C68.3222 74.1008 68.4059 74.0847 68.5024 74.0526V74.6897ZM67.1703 72.1316C67.0673 72.2088 66.9321 72.2667 66.7648 72.3054C66.5975 72.3375 66.4205 72.3665 66.2339 72.3922C66.0537 72.4115 65.8703 72.4373 65.6837 72.4695C65.4971 72.4952 65.3297 72.5403 65.1817 72.6046C65.0337 72.669 64.9114 72.7623 64.8149 72.8845C64.7248 73.0004 64.6798 73.1613 64.6798 73.3672C64.6798 73.5023 64.7055 73.6182 64.757 73.7147C64.8149 73.8048 64.8857 73.8788 64.9693 73.9367C65.0594 73.9947 65.1624 74.0365 65.2782 74.0622C65.3941 74.088 65.5164 74.1008 65.6451 74.1008C65.9154 74.1008 66.147 74.0654 66.3401 73.9947C66.5332 73.9174 66.6908 73.8241 66.8131 73.7147C66.9354 73.5989 67.0255 73.4766 67.0834 73.3479C67.1413 73.2128 67.1703 73.0873 67.1703 72.9714V72.1316ZM69.4784 73.1355H68.6579C68.6708 73.4444 68.7351 73.7083 68.851 73.9271C68.9668 74.1395 69.1212 74.3132 69.3143 74.4484C69.5074 74.5771 69.7294 74.6704 69.9804 74.7283C70.2314 74.7862 70.4952 74.8152 70.7719 74.8152C71.0229 74.8152 71.2739 74.7894 71.5249 74.7379C71.7823 74.6929 72.0107 74.6092 72.2102 74.487C72.4162 74.3647 72.5803 74.2038 72.7025 74.0043C72.8313 73.8048 72.8956 73.5538 72.8956 73.2514C72.8956 73.0133 72.8473 72.8138 72.7508 72.6529C72.6607 72.492 72.5384 72.3601 72.384 72.2571C72.236 72.1477 72.0622 72.0608 71.8627 71.9965C71.6697 71.9321 71.4702 71.8774 71.2642 71.8324C71.0712 71.7873 70.8781 71.7455 70.685 71.7069C70.492 71.6618 70.3182 71.6103 70.1638 71.5524C70.0093 71.4881 69.8806 71.4108 69.7777 71.3207C69.6811 71.2242 69.6329 71.1052 69.6329 70.9636C69.6329 70.8349 69.665 70.7319 69.7294 70.6547C69.7937 70.571 69.8774 70.5067 69.9804 70.4616C70.0833 70.4101 70.196 70.3747 70.3182 70.3554C70.4469 70.3361 70.5724 70.3265 70.6947 70.3265C70.8298 70.3265 70.9618 70.3426 71.0905 70.3747C71.2256 70.4005 71.3479 70.4455 71.4573 70.5099C71.5667 70.5742 71.6568 70.6611 71.7276 70.7705C71.7984 70.8735 71.8402 71.0054 71.8531 71.1663H72.6736C72.6543 70.8638 72.5899 70.6128 72.4805 70.4133C72.3711 70.2074 72.2231 70.0465 72.0365 69.9307C71.8563 69.8084 71.6471 69.7248 71.409 69.6797C71.1709 69.6282 70.9103 69.6025 70.6271 69.6025C70.4083 69.6025 70.1863 69.6314 69.9611 69.6894C69.7423 69.7408 69.5428 69.8245 69.3626 69.9403C69.1888 70.0497 69.044 70.1945 68.9282 70.3747C68.8188 70.5549 68.7641 70.7705 68.7641 71.0215C68.7641 71.3433 68.8445 71.5942 69.0054 71.7744C69.1663 71.9546 69.3658 72.0962 69.6039 72.1992C69.8484 72.2957 70.1123 72.3729 70.3955 72.4308C70.6786 72.4823 70.9392 72.5435 71.1774 72.6143C71.4219 72.6786 71.6246 72.7655 71.7855 72.8749C71.9464 72.9843 72.0268 73.1452 72.0268 73.3575C72.0268 73.512 71.9882 73.6407 71.911 73.7437C71.8338 73.8402 71.734 73.9142 71.6117 73.9657C71.4959 74.0172 71.3672 74.0526 71.2256 74.0719C71.084 74.0912 70.9489 74.1008 70.8202 74.1008C70.6529 74.1008 70.4888 74.0847 70.3279 74.0526C70.1734 74.0204 70.0319 73.9689 69.9031 73.8981C69.7809 73.8209 69.6811 73.7211 69.6039 73.5989C69.5267 73.4702 69.4848 73.3157 69.4784 73.1355ZM74.3822 68.8206V67.8167H73.5617V68.8206H74.3822ZM73.5617 69.7183V74.709H74.3822V69.7183H73.5617ZM75.3637 69.7183V74.709H76.1842V71.8903C76.1842 71.665 76.2132 71.4591 76.2711 71.2725C76.3355 71.0794 76.4288 70.9121 76.5511 70.7705C76.6733 70.6289 76.8246 70.5195 77.0047 70.4423C77.1914 70.3651 77.4102 70.3265 77.6612 70.3265C77.9765 70.3265 78.2243 70.4166 78.4044 70.5968C78.5846 70.7769 78.6747 71.0215 78.6747 71.3304V74.709H79.4953V71.4269C79.4953 71.1566 79.4663 70.9121 79.4084 70.6933C79.3569 70.468 79.2636 70.275 79.1284 70.1141C78.9933 69.9532 78.8163 69.8277 78.5975 69.7376C78.3787 69.6475 78.1052 69.6025 77.777 69.6025C77.0369 69.6025 76.4963 69.905 76.1553 70.5099H76.136V69.7183H75.3637ZM81.0365 72.2185C81.0365 71.916 81.0751 71.6489 81.1523 71.4173C81.236 71.1792 81.3486 70.9797 81.4902 70.8188C81.6318 70.6579 81.7959 70.5356 81.9825 70.452C82.1756 70.3683 82.3783 70.3265 82.5907 70.3265C82.803 70.3265 83.0025 70.3683 83.1892 70.452C83.3822 70.5356 83.5495 70.6579 83.6911 70.8188C83.8327 70.9797 83.9421 71.1792 84.0193 71.4173C84.103 71.6489 84.1448 71.916 84.1448 72.2185C84.1448 72.5209 84.103 72.7912 84.0193 73.0293C83.9421 73.261 83.8327 73.4573 83.6911 73.6182C83.5495 73.7726 83.3822 73.8917 83.1892 73.9753C83.0025 74.059 82.803 74.1008 82.5907 74.1008C82.3783 74.1008 82.1756 74.059 81.9825 73.9753C81.7959 73.8917 81.6318 73.7726 81.4902 73.6182C81.3486 73.4573 81.236 73.261 81.1523 73.0293C81.0751 72.7912 81.0365 72.5209 81.0365 72.2185ZM80.1677 72.2185C80.1677 72.5853 80.2192 72.9264 80.3222 73.2417C80.4251 73.557 80.5796 73.8338 80.7855 74.0719C80.9915 74.3036 81.2457 74.487 81.5481 74.6221C81.8506 74.7508 82.1981 74.8152 82.5907 74.8152C82.9897 74.8152 83.3372 74.7508 83.6332 74.6221C83.9357 74.487 84.1899 74.3036 84.3958 74.0719C84.6017 73.8338 84.7562 73.557 84.8591 73.2417C84.9621 72.9264 85.0136 72.5853 85.0136 72.2185C85.0136 71.8517 84.9621 71.5106 84.8591 71.1953C84.7562 70.8735 84.6017 70.5968 84.3958 70.3651C84.1899 70.127 83.9357 69.9403 83.6332 69.8052C83.3372 69.6701 82.9897 69.6025 82.5907 69.6025C82.1981 69.6025 81.8506 69.6701 81.5481 69.8052C81.2457 69.9403 80.9915 70.127 80.7855 70.3651C80.5796 70.5968 80.4251 70.8735 80.3222 71.1953C80.2192 71.5106 80.1677 71.8517 80.1677 72.2185Z" fill="white"/>
</svg>
