<svg width="79" height="41" viewBox="0 0 79 41" fill="none" xmlns="http://www.w3.org/2000/svg">
<path d="M18.6937 15.6305C19.6023 15.9485 20.314 16.4481 20.8288 17.1295C21.3436 17.7958 21.601 18.6059 21.601 19.5599C21.601 20.953 21.0408 22.0281 19.9203 22.7852C18.7997 23.5423 17.1795 23.9208 15.0596 23.9208H8.04893C6.74007 23.9208 5.78083 22.6891 6.10147 21.4201L6.47394 19.946V15.9712V8.02148H14.6053C16.6344 8.02148 18.1789 8.40004 19.2389 9.15715C20.2988 9.89912 20.8288 10.9061 20.8288 12.178C20.8288 12.9351 20.6395 13.6165 20.261 14.2222C19.8975 14.8128 19.3751 15.2822 18.6937 15.6305ZM10.9258 11.2695V14.3358H14.0148C15.529 14.3358 16.2861 13.821 16.2861 12.7913C16.2861 11.7768 15.529 11.2695 14.0148 11.2695H10.9258ZM14.6962 20.6728C16.271 20.6728 17.0584 20.1353 17.0584 19.0602C17.0584 17.9851 16.271 17.4475 14.6962 17.4475H10.9258V20.6728H14.6962Z" fill="white"/>
<path d="M33.2053 11.6102C34.3147 11.6102 35.214 12.5095 35.214 13.6189V21.9122C35.214 23.0215 34.3147 23.9208 33.2053 23.9208H32.4203C31.6927 23.9208 31.1029 23.331 31.1029 22.6035C30.6486 23.1032 30.1035 23.4817 29.4675 23.7391C28.8316 23.9966 28.1577 24.1253 27.446 24.1253C25.8561 24.1253 24.5842 23.6559 23.6302 22.717C22.6914 21.7782 22.222 20.37 22.222 18.4924V13.6189C22.222 12.5095 23.1213 11.6102 24.2306 11.6102H24.5288C25.6382 11.6102 26.5375 12.5095 26.5375 13.6189V17.7882C26.5375 18.7119 26.7116 19.3857 27.0599 19.8097C27.4082 20.2337 27.9154 20.4457 28.5817 20.4457C29.2631 20.4457 29.8158 20.211 30.2398 19.7416C30.6789 19.257 30.8985 18.5226 30.8985 17.5384V13.6189C30.8985 12.5095 31.7978 11.6102 32.9071 11.6102H33.2053Z" fill="white"/>
<path d="M44.553 11.4058C46.0823 11.4058 47.3088 11.86 48.2325 12.7686C49.1713 13.6771 49.6408 15.0475 49.6408 16.8797V21.9122C49.6408 23.0215 48.7414 23.9208 47.6321 23.9208H47.3339C46.2245 23.9208 45.3252 23.0215 45.3252 21.9122V17.5838C45.3252 15.903 44.6514 15.0626 43.3037 15.0626C42.5618 15.0626 41.9636 15.3049 41.5094 15.7895C41.0702 16.274 40.8507 17.0008 40.8507 17.9699V21.9122C40.8507 23.0215 39.9514 23.9208 38.842 23.9208H38.5438C37.4345 23.9208 36.5351 23.0215 36.5351 21.9122V13.6189C36.5351 12.5095 37.4344 11.6102 38.5438 11.6102H39.3062C40.0463 11.6102 40.6463 12.2102 40.6463 12.9503C41.1308 12.4506 41.7062 12.072 42.3725 11.8146C43.0387 11.5421 43.7656 11.4058 44.553 11.4058Z" fill="white"/>
<path d="M58.9094 11.4058C60.4388 11.4058 61.6653 11.86 62.589 12.7686C63.5278 13.6771 63.9972 15.0475 63.9972 16.8797V21.9122C63.9972 23.0215 63.0979 23.9208 61.9886 23.9208H61.6904C60.581 23.9208 59.6817 23.0215 59.6817 21.9122V17.5838C59.6817 15.903 59.0079 15.0626 57.6602 15.0626C56.9182 15.0626 56.3201 15.3049 55.8658 15.7895C55.4267 16.274 55.2072 17.0008 55.2072 17.9699V21.9122C55.2072 23.0215 54.3078 23.9208 53.1985 23.9208H52.9003C51.7909 23.9208 50.8916 23.0215 50.8916 21.9122V13.6189C50.8916 12.5095 51.7909 11.6102 52.9003 11.6102H53.6626C54.4028 11.6102 55.0027 12.2102 55.0027 12.9503C55.4873 12.4506 56.0627 12.072 56.729 11.8146C57.3952 11.5421 58.122 11.4058 58.9094 11.4058Z" fill="white"/>
<path d="M76.1648 11.6102C77.5145 11.6102 78.4307 12.9822 77.9135 14.2289L73.685 24.4205C73.0642 25.9348 72.3071 26.9947 71.4137 27.6004C70.5203 28.2212 69.43 28.5317 68.143 28.5317C67.4918 28.5317 66.8331 28.4257 66.1669 28.2137C65.9903 28.1603 65.8226 28.1019 65.6638 28.0385C64.9816 27.766 64.8087 26.9516 65.1353 26.2936L65.6245 25.3078C65.8494 24.8545 66.4635 24.7473 66.9391 24.9202C67.2874 25.0565 67.6357 25.1247 67.984 25.1247C68.3928 25.1247 68.7259 25.0414 68.9833 24.8748C69.2559 24.7082 69.483 24.4433 69.6647 24.0798L65.5745 14.4007C65.0149 13.0765 66.016 11.6102 67.4537 11.6102C68.2739 11.6102 69.0247 12.1089 69.3305 12.87L71.8452 19.1283L74.41 12.793C74.6994 12.0781 75.3936 11.6102 76.1648 11.6102Z" fill="white"/>
<path d="M16.1593 33.7567H18.4189V38.8822C17.7576 39.4088 16.986 39.813 16.1042 40.0947C15.2224 40.3764 14.3161 40.5172 13.3853 40.5172C12.0748 40.5172 10.8929 40.2355 9.83963 39.6722C8.78636 39.0965 7.95966 38.3066 7.35953 37.3023C6.75941 36.298 6.45935 35.1651 6.45935 33.9036C6.45935 32.6422 6.75941 31.5093 7.35953 30.505C7.95966 29.5007 8.78636 28.7169 9.83963 28.1535C10.9052 27.5779 12.0993 27.29 13.422 27.29C14.4998 27.29 15.4796 27.4676 16.3614 27.8228C17.2432 28.178 17.9842 28.6985 18.5843 29.3843L17.0779 30.854C16.0981 29.8742 14.9162 29.3843 13.5322 29.3843C12.6259 29.3843 11.8176 29.5742 11.1072 29.9539C10.4091 30.3335 9.85801 30.8663 9.45384 31.5521C9.06192 32.238 8.86597 33.0218 8.86597 33.9036C8.86597 34.761 9.06192 35.5325 9.45384 36.2184C9.85801 36.9043 10.4091 37.4431 11.1072 37.8351C11.8176 38.227 12.6198 38.4229 13.5139 38.4229C14.5181 38.4229 15.4 38.2025 16.1593 37.7616V33.7567Z" fill="#138EFF"/>
<path d="M24.545 30.4131C25.9902 30.4131 27.0924 30.7622 27.8518 31.4603C28.6234 32.1461 29.0092 33.1872 29.0092 34.5834V40.3335H26.8414V39.1394C26.5597 39.5681 26.1555 39.8987 25.6289 40.1314C25.1145 40.3519 24.4899 40.4621 23.755 40.4621C23.0202 40.4621 22.3772 40.3397 21.8261 40.0947C21.2749 39.8375 20.8463 39.4885 20.5401 39.0475C20.2462 38.5944 20.0992 38.0861 20.0992 37.5227C20.0992 36.6409 20.4237 35.9367 21.0729 35.4101C21.7342 34.8712 22.7691 34.6017 24.1776 34.6017H26.7128V34.4548C26.7128 33.7689 26.5046 33.2423 26.0882 32.8749C25.684 32.5074 25.0778 32.3237 24.2694 32.3237C23.7183 32.3237 23.1733 32.4095 22.6344 32.5809C22.1078 32.7524 21.6607 32.9912 21.2933 33.2974L20.3931 31.6256C20.9075 31.2337 21.526 30.9336 22.2486 30.7254C22.9712 30.5172 23.7367 30.4131 24.545 30.4131ZM24.2327 38.7904C24.8083 38.7904 25.3166 38.6618 25.7575 38.4046C26.2106 38.1351 26.5291 37.7554 26.7128 37.2656V36.1265H24.3429C23.0202 36.1265 22.3588 36.5613 22.3588 37.4309C22.3588 37.8473 22.5242 38.178 22.8548 38.4229C23.1855 38.6679 23.6448 38.7904 24.2327 38.7904Z" fill="#138EFF"/>
<path d="M43.7873 30.4131C45.0243 30.4131 46.0041 30.7744 46.7267 31.497C47.4493 32.2074 47.8106 33.279 47.8106 34.712V40.3335H45.5142V35.0059C45.5142 34.1486 45.3243 33.5056 44.9447 33.0769C44.565 32.636 44.02 32.4156 43.3096 32.4156C42.5381 32.4156 41.9196 32.6728 41.4542 33.1872C40.9888 33.6893 40.7561 34.4119 40.7561 35.355V40.3335H38.4597V35.0059C38.4597 34.1486 38.2698 33.5056 37.8902 33.0769C37.5105 32.636 36.9655 32.4156 36.2551 32.4156C35.4713 32.4156 34.8467 32.6667 34.3813 33.1688C33.9281 33.6709 33.7016 34.3997 33.7016 35.355V40.3335H31.4052V30.5234H33.5913V31.7726C33.9587 31.3317 34.418 30.9949 34.9692 30.7622C35.5203 30.5295 36.1327 30.4131 36.8063 30.4131C37.5411 30.4131 38.1902 30.554 38.7536 30.8357C39.3292 31.1051 39.7824 31.5093 40.1131 32.0482C40.5172 31.5338 41.0378 31.1357 41.6746 30.854C42.3115 30.5601 43.0157 30.4131 43.7873 30.4131Z" fill="#138EFF"/>
<path d="M59.5059 35.4836C59.5059 35.6428 59.4937 35.8693 59.4692 36.1633H51.7717C51.9064 36.8859 52.2555 37.4615 52.8188 37.8902C53.3945 38.3066 54.1048 38.5148 54.9499 38.5148C56.0277 38.5148 56.9156 38.1596 57.6137 37.4493L58.8446 38.8638C58.4037 39.3905 57.8464 39.7885 57.1728 40.058C56.4992 40.3274 55.7399 40.4621 54.8948 40.4621C53.817 40.4621 52.8678 40.2478 52.0473 39.8191C51.2267 39.3905 50.5898 38.7965 50.1367 38.0371C49.6958 37.2656 49.4753 36.396 49.4753 35.4284C49.4753 34.4731 49.6896 33.6158 50.1183 32.8565C50.5592 32.0849 51.1654 31.4848 51.937 31.0561C52.7086 30.6275 53.5782 30.4131 54.5457 30.4131C55.501 30.4131 56.3522 30.6275 57.0993 31.0561C57.8587 31.4725 58.4465 32.0665 58.8629 32.8381C59.2916 33.5975 59.5059 34.4793 59.5059 35.4836ZM54.5457 32.2502C53.8109 32.2502 53.1863 32.4707 52.6719 32.9116C52.1697 33.3403 51.8635 33.9159 51.7533 34.6385H57.3198C57.2218 33.9281 56.9217 33.3525 56.4196 32.9116C55.9174 32.4707 55.2928 32.2502 54.5457 32.2502Z" fill="#138EFF"/>
<ellipse cx="9.18297" cy="5.36027" rx="2.00867" ry="5.02166" transform="rotate(-14.175 9.18297 5.36027)" fill="white"/>
<ellipse cx="5.11368" cy="7.67536" rx="2.00867" ry="5.02166" transform="rotate(-49.1934 5.11368 7.67536)" fill="white"/>
</svg>
