<svg width="32" height="32" viewBox="0 0 32 32" fill="none" xmlns="http://www.w3.org/2000/svg">
<circle cx="16" cy="16" r="16" fill="white"/>
<path d="M8.49996 8.5H23.5C23.721 8.5 23.9329 8.5878 24.0892 8.74408C24.2455 8.90036 24.3333 9.11232 24.3333 9.33333V22.6667C24.3333 22.8877 24.2455 23.0996 24.0892 23.2559C23.9329 23.4122 23.721 23.5 23.5 23.5H8.49996C8.27895 23.5 8.06698 23.4122 7.9107 23.2559C7.75442 23.0996 7.66663 22.8877 7.66663 22.6667V9.33333C7.66663 9.11232 7.75442 8.90036 7.9107 8.74408C8.06698 8.5878 8.27895 8.5 8.49996 8.5ZM16.05 15.7358L10.7066 11.1983L9.62746 12.4683L16.0608 17.9308L22.3783 12.4642L21.2883 11.2033L16.0508 15.7358H16.05Z" fill="#6F767E"/>
</svg>
