<svg width="32" height="32" viewBox="0 0 32 32" fill="none" xmlns="http://www.w3.org/2000/svg">
<circle cx="16" cy="16" r="16" fill="#E95462"/>
<path d="M7.80871 11.8848C8.57138 10.3661 9.74138 9.08945 11.1879 8.1975C12.6345 7.30554 14.3006 6.83345 16 6.83398C18.4705 6.83398 20.5458 7.74148 22.1325 9.2219L19.5045 11.8509C18.5539 10.9425 17.3457 10.4796 16 10.4796C13.6121 10.4796 11.5909 12.0929 10.8713 14.259C10.688 14.809 10.5835 15.3957 10.5835 16.0007C10.5835 16.6057 10.688 17.1923 10.8713 17.7423C11.5918 19.9093 13.6121 21.5217 16 21.5217C17.233 21.5217 18.2825 21.1963 19.1039 20.6463C19.58 20.3328 19.9877 19.926 20.3021 19.4505C20.6166 18.975 20.8314 18.4407 20.9335 17.8798H16V14.3342H24.6332C24.7414 14.9337 24.8 15.5588 24.8 16.2087C24.8 19.0009 23.8009 21.3512 22.0665 22.9462C20.5504 24.3469 18.475 25.1673 16 25.1673C14.7961 25.1678 13.6039 24.931 12.4915 24.4705C11.3792 24.01 10.3685 23.3348 9.51715 22.4835C8.66585 21.6322 7.99066 20.6215 7.53016 19.5092C7.06967 18.3968 6.83289 17.2046 6.83337 16.0007C6.83337 14.5212 7.18721 13.1223 7.80871 11.8848Z" fill="white"/>
</svg>
