<svg width="19" height="18" viewBox="0 0 19 18" fill="none" xmlns="http://www.w3.org/2000/svg">
<path d="M7.99999 8.25H3.49999V2.25C3.49999 2.05109 3.57901 1.86032 3.71966 1.71967C3.86031 1.57902 4.05108 1.5 4.24999 1.5H14.75C14.9489 1.5 15.1397 1.57902 15.2803 1.71967C15.421 1.86032 15.5 2.05109 15.5 2.25V15.75C15.5 15.9489 15.421 16.1397 15.2803 16.2803C15.1397 16.421 14.9489 16.5 14.75 16.5H4.24999C4.05108 16.5 3.86031 16.421 3.71966 16.2803C3.57901 16.1397 3.49999 15.9489 3.49999 15.75V9.75H7.99999V12L11.75 9L7.99999 6V8.25Z" fill="#EB5757"/>
</svg>
