<svg width="19" height="18" viewBox="0 0 19 18" fill="none" xmlns="http://www.w3.org/2000/svg">
<path d="M15.5 9.75012V15.0001C15.5 15.199 15.421 15.3898 15.2803 15.5305C15.1397 15.6711 14.9489 15.7501 14.75 15.7501H4.25C4.05109 15.7501 3.86032 15.6711 3.71967 15.5305C3.57902 15.3898 3.5 15.199 3.5 15.0001V9.75012H15.5ZM11.375 1.50012C11.818 1.49997 12.2538 1.61193 12.6419 1.82557C13.0299 2.03921 13.3576 2.34759 13.5944 2.72197C13.8312 3.09636 13.9694 3.52459 13.9961 3.96677C14.0228 4.40894 13.9372 4.85069 13.7472 5.25087L16.25 5.25012C16.4489 5.25012 16.6397 5.32914 16.7803 5.46979C16.921 5.61045 17 5.80121 17 6.00012V8.25012C17 8.44904 16.921 8.6398 16.7803 8.78045C16.6397 8.92111 16.4489 9.00012 16.25 9.00012H2.75C2.55109 9.00012 2.36032 8.92111 2.21967 8.78045C2.07902 8.6398 2 8.44904 2 8.25012V6.00012C2 5.80121 2.07902 5.61045 2.21967 5.46979C2.36032 5.32914 2.55109 5.25012 2.75 5.25012L5.25275 5.25087C4.98557 4.68963 4.92622 4.05178 5.08528 3.45087C5.24433 2.84997 5.61147 2.32501 6.12132 1.96944C6.63118 1.61387 7.25068 1.45077 7.86952 1.50918C8.48837 1.56758 9.06642 1.8437 9.50075 2.28838C9.74453 2.03827 10.036 1.83963 10.358 1.70423C10.6799 1.56884 11.0257 1.49943 11.375 1.50012ZM7.625 3.00012C7.33609 3.00027 7.0583 3.11156 6.84921 3.31093C6.64012 3.51031 6.51574 3.78248 6.50186 4.07106C6.48797 4.35964 6.58564 4.6425 6.77463 4.86103C6.96362 5.07955 7.22944 5.217 7.517 5.24487L7.625 5.25012H8.75V4.12512C8.74999 3.84546 8.64581 3.57583 8.45779 3.36881C8.26976 3.16179 8.01137 3.03222 7.733 3.00537L7.625 3.00012ZM11.375 3.00012L11.267 3.00537C11.007 3.03028 10.7638 3.14486 10.5791 3.32946C10.3944 3.51406 10.2796 3.75718 10.2545 4.01712L10.25 4.12512V5.25012H11.375L11.483 5.24487C11.7613 5.2179 12.0195 5.08827 12.2074 4.88127C12.3953 4.67426 12.4994 4.4047 12.4994 4.12512C12.4994 3.84555 12.3953 3.57599 12.2074 3.36898C12.0195 3.16198 11.7613 3.03235 11.483 3.00537L11.375 3.00012Z" fill="white"/>
</svg>
