<svg width="32" height="32" viewBox="0 0 32 32" fill="none" xmlns="http://www.w3.org/2000/svg">
<g clip-path="url(#clip0_1030_77379)">
<path d="M23.4304 2.81525C22.5976 3.63867 21.8347 4.53112 21.1565 5.48274L20.942 5.41371C19.7053 5.01432 18.4237 4.76779 17.1321 4.68397C16.7432 4.65439 15.292 4.65439 14.8183 4.68397C13.3871 4.77765 12.29 4.98967 11.0433 5.41864C10.9935 5.43836 10.9486 5.45315 10.9037 5.46794C10.2006 4.52126 9.41764 3.63374 8.55493 2.82018C12.6939 0.724648 17.5361 0.473184 21.8696 2.12496C22.3333 2.29753 22.7871 2.49969 23.2309 2.71664L23.4304 2.81525Z" fill="#F00500"/>
<path d="M31.1499 21.5168C30.5216 23.2869 29.5791 24.9288 28.3573 26.3587C27.6941 27.1279 26.961 27.833 26.1731 28.474C24.328 29.9433 22.1737 30.9936 19.8748 31.5458C17.3316 32.1523 14.6786 32.1523 12.1354 31.5458C9.83151 30.9936 7.68223 29.9433 5.83713 28.474C5.04922 27.833 4.31616 27.1279 3.65293 26.3587C0.137265 22.2515 -0.9299 16.6108 0.860344 11.5273C1.19944 10.5855 1.62332 9.67828 2.13197 8.81542C2.36634 8.42096 2.65558 7.9772 2.79521 7.79477C3.27394 9.83113 3.86237 11.621 4.08179 12.2669C4.06683 12.3014 4.04688 12.3408 4.02693 12.3754C2.86502 14.7026 2.23669 16.9461 2.08709 19.3325C2.08709 19.3621 2.0821 19.3966 2.0821 19.4262C2.04221 20.1412 2.06215 20.4814 2.18183 20.9301C2.55584 22.3353 3.70778 23.8835 5.51299 25.4022C8.47013 27.8872 12.4795 29.682 15.5164 29.8891C18.683 30.1011 23.3556 28.2718 26.4673 25.5994C26.956 25.1704 27.4148 24.7168 27.8437 24.2336C28.1528 23.8786 28.6116 23.2672 28.5767 23.2672C28.5667 23.2672 28.5767 23.2573 28.5967 23.2475C28.6116 23.2376 28.6266 23.2228 28.6166 23.213C28.6116 23.208 28.6216 23.1932 28.6366 23.1883C28.6515 23.1834 28.6615 23.1735 28.6565 23.1637C28.6515 23.1538 28.6565 23.1439 28.6765 23.139C28.6914 23.1341 28.6964 23.1193 28.6914 23.1094C28.6864 23.0996 28.6914 23.0897 28.7014 23.0897C28.7114 23.0897 28.7213 23.0749 28.7213 23.065C28.7213 23.0552 28.7313 23.0404 28.7413 23.0404C28.7513 23.0404 28.7612 23.0305 28.7612 23.0207C28.7762 22.9812 28.8011 22.9418 28.8261 22.9073C28.9009 22.7939 29.2001 22.2663 29.24 22.1775C29.5242 21.5415 29.7037 20.9744 29.7885 20.4074C29.8284 20.1362 29.8533 19.6382 29.8334 19.5199C29.8284 19.5002 29.8284 19.4657 29.8234 19.4114C29.8134 19.3128 29.8085 19.1649 29.7985 19.017C29.7885 18.7951 29.7686 18.4845 29.7536 18.3316C29.5392 16.0931 28.9607 14.2638 27.8636 12.3261C27.8187 12.2521 27.7788 12.1781 27.7539 12.119C27.7439 12.1042 27.7389 12.0894 27.734 12.0795C27.8885 11.621 28.5219 9.70294 29.0255 7.50879L29.0355 7.51865L29.1103 7.61726C29.24 7.78984 29.584 8.30263 29.7386 8.54916C30.4418 9.68321 30.9903 10.9011 31.3793 12.1732C32.2819 15.2351 32.2071 18.4993 31.1499 21.5168Z" fill="#F00500"/>
<path d="M24.677 15.6255C24.6621 15.7044 24.4277 15.9411 24.1933 16.1136C23.5052 16.6116 22.2734 17.0751 21.0217 17.297C20.3086 17.4252 19.5955 17.4449 19.3811 17.3414C19.2415 17.2723 19.2215 17.2181 19.2714 17.0406C19.3761 16.6708 19.7152 16.2665 20.2438 15.8868C20.5131 15.6945 21.6052 15.0387 22.1138 14.7626C22.9516 14.309 23.6298 14.0378 24.0886 13.9737C24.2332 13.954 24.4078 13.9491 24.4626 13.9737C24.5524 14.0082 24.6521 14.2696 24.692 14.5851C24.712 14.7528 24.702 15.4924 24.677 15.6255Z" fill="black"/>
<path d="M12.9283 17.2571C12.8984 17.3163 12.7488 17.3804 12.5792 17.405C12.4097 17.4297 11.8911 17.4149 11.5968 17.3804C10.5396 17.2423 9.41763 16.9218 8.5998 16.5274C8.14102 16.3055 7.81189 16.0836 7.56753 15.842L7.42791 15.699L7.41295 15.5117C7.38801 15.1862 7.393 14.6735 7.43289 14.491C7.45783 14.3382 7.51268 14.1902 7.58748 14.0571C7.62738 14.0078 7.62738 14.0078 7.8069 14.0078C8.02632 14.0078 8.21083 14.0423 8.51003 14.136C9.12341 14.3234 10.036 14.777 11.148 15.4377C12.0656 15.9801 12.4097 16.2463 12.674 16.6112C12.8535 16.838 12.9732 17.1585 12.9283 17.2571Z" fill="black"/>
<path d="M19.9897 24.1211C19.9897 24.1359 19.9298 24.3726 19.855 24.6536C19.7802 24.9347 19.7204 25.1615 19.7204 25.1713C19.6655 25.1763 19.6157 25.1812 19.5608 25.1763H19.4012L19.1818 25.6891C19.0621 25.9701 18.9524 26.2314 18.9375 26.2709L18.9075 26.3399L18.8028 26.1723L18.6981 26.0046V24.6388L18.6582 24.6487C18.5734 24.6684 17.97 24.7473 17.7057 24.772C16.6136 24.8804 15.5165 24.8558 14.4294 24.7029C14.2549 24.6783 14.1053 24.6585 14.1003 24.6635C14.0953 24.6684 14.1003 24.984 14.1103 25.3735L14.1252 26.0736L14.0405 26.2018C13.9956 26.2709 13.9507 26.33 13.9507 26.335C13.9357 26.3498 13.8859 26.2709 13.7712 26.0441C13.6465 25.8074 13.5567 25.5559 13.4919 25.2946L13.457 25.1516L13.3024 25.1615L13.1478 25.1763L13.1079 24.9938C13.088 24.8952 13.063 24.7424 13.0531 24.6585L13.0381 24.5008L12.9085 24.3874C12.8337 24.3233 12.7589 24.2592 12.7439 24.2493C12.719 24.2296 12.709 24.1951 12.709 24.1655V24.1063L13.3323 24.1112L13.9557 24.1162L13.9756 24.1803L13.9956 24.2444L14.21 24.2542C14.3297 24.2592 14.7087 24.269 15.0478 24.2789L15.6711 24.2937L15.8307 24.0471L15.9953 23.8006H16.2047L16.1997 23.2878L16.1947 22.775L15.9205 22.6567C15.0378 22.2721 14.5192 21.8333 14.3247 21.3008C14.2848 21.1923 14.2848 21.1528 14.2748 20.6598C14.2698 20.1716 14.2698 20.1273 14.3048 20.0188C14.3746 19.7723 14.5691 19.58 14.8184 19.5159C14.9032 19.4912 15.1276 19.4912 16.3045 19.4912L17.6908 19.4961L17.8454 19.5701C18.0299 19.6589 18.1146 19.723 18.2194 19.861C18.3391 20.0188 18.374 20.1421 18.374 20.4428C18.374 20.8718 18.344 21.2416 18.2992 21.3895C18.2343 21.5917 18.1346 21.784 18.0099 21.9565C17.7606 22.2721 17.3068 22.5877 16.8929 22.7307L16.7732 22.775L16.7782 23.2928L16.7832 23.8105L16.8929 23.8203L17.0026 23.8302L17.1522 24.0521L17.2968 24.274H17.965C18.3341 24.274 18.6582 24.2789 18.6881 24.2838C18.738 24.2937 18.748 24.2887 18.7978 24.2049L18.8577 24.1162H19.4312C19.86 24.0964 19.9897 24.1063 19.9897 24.1211Z" fill="black"/>
<path d="M17.3565 25.5353C17.2617 25.5896 17.1969 25.6142 17.1819 25.6044C17.167 25.5994 17.0971 25.5403 17.0223 25.486L16.8877 25.3775L16.7481 25.5255C16.4439 25.8509 16.4339 25.8657 16.3441 25.8706C16.2045 25.8854 16.1746 25.8608 16.005 25.6093C15.9153 25.4811 15.8455 25.3726 15.8455 25.3726C15.8455 25.3726 15.7806 25.3627 15.7058 25.3578L15.5662 25.343L15.5014 25.4762L15.4366 25.6093L15.3219 25.5748C15.2321 25.5452 15.1423 25.5107 15.0576 25.4712L14.908 25.3973V25.1162L16.2344 25.1211L17.5609 25.1261L17.5659 25.2592C17.5709 25.417 17.5759 25.4121 17.3565 25.5353Z" fill="black"/>
<path d="M29.8235 19.52C29.8185 19.5003 29.8185 19.4658 29.8135 19.4115C28.6167 19.2833 25.2007 19.2044 22.0292 21.793C22.0292 21.793 21.0069 17.1582 16.2196 17.1582C11.4323 17.1582 9.65703 21.793 9.65703 21.793C6.97416 18.9382 3.38369 19.1453 2.08714 19.3326C2.08714 19.3622 2.08215 19.3967 2.08215 19.4263C2.04225 20.1413 2.0622 20.4815 2.18188 20.9302C2.55589 22.3354 3.70783 23.8836 5.51304 25.4023C8.47018 27.8873 12.4795 29.6821 15.5165 29.8892C18.6831 30.1012 23.3556 28.2719 26.4674 25.5995C26.9561 25.1705 27.4149 24.7169 27.8437 24.2337C28.1529 23.8787 28.6117 23.2673 28.5768 23.2673C28.5668 23.2673 28.5768 23.2574 28.5967 23.2476C28.6117 23.2377 28.6266 23.2229 28.6167 23.2131C28.6117 23.2081 28.6217 23.1933 28.6366 23.1884C28.6516 23.1835 28.6616 23.1736 28.6566 23.1638C28.6516 23.1539 28.6566 23.144 28.6765 23.1391C28.6915 23.1342 28.6965 23.1194 28.6915 23.1095C28.6865 23.0997 28.6915 23.0898 28.7014 23.0898C28.7114 23.0898 28.7214 23.075 28.7214 23.0651C28.7214 23.0553 28.7314 23.0405 28.7413 23.0405C28.7513 23.0405 28.7613 23.0306 28.7613 23.0208C28.7762 22.9813 28.8012 22.9419 28.8261 22.9074C28.9009 22.794 29.2001 22.2664 29.24 22.1776C29.5243 21.5416 29.7038 20.9745 29.7886 20.4075C29.8185 20.1363 29.8434 19.6383 29.8235 19.52ZM17.3566 25.5354C17.2618 25.5896 17.197 25.6143 17.182 25.6044C17.1671 25.5995 17.0973 25.5403 17.0225 25.4861L16.8878 25.3776L16.7482 25.5255C16.444 25.851 16.434 25.8658 16.3443 25.8707C16.2046 25.8855 16.1747 25.8608 16.0052 25.6094C15.9154 25.4812 15.8456 25.3727 15.8456 25.3727C15.8456 25.3727 15.7808 25.3628 15.706 25.3579L15.5663 25.3431L15.5015 25.4762L15.4367 25.6094L15.322 25.5748C15.2322 25.5453 15.1425 25.5107 15.0577 25.4713L14.9081 25.3973V25.1163L16.2346 25.1212L17.561 25.1262L17.566 25.2593C17.571 25.4171 17.576 25.4121 17.3566 25.5354ZM19.85 24.6479C19.7752 24.9289 19.7153 25.1557 19.7153 25.1656C19.6605 25.1705 19.6106 25.1755 19.5557 25.1705H19.3962L19.1817 25.6883C19.062 25.9693 18.9523 26.2306 18.9374 26.2701L18.9075 26.3391L18.8027 26.1715L18.698 26.0038V24.638L18.6581 24.6479C18.5733 24.6676 17.9699 24.7465 17.7057 24.7711C16.6136 24.8796 15.5165 24.855 14.4294 24.7021C14.2548 24.6775 14.1052 24.6577 14.1002 24.6627C14.0952 24.6676 14.1002 24.9832 14.1102 25.3727L14.1252 26.0728L14.0404 26.201C13.9955 26.2701 13.9506 26.3292 13.9506 26.3342C13.9357 26.349 13.8858 26.2701 13.7711 26.0433C13.6464 25.8066 13.5567 25.5551 13.4918 25.2938L13.4569 25.1508L13.3023 25.1607L13.1478 25.1755L13.1079 24.993C13.0879 24.8944 13.063 24.7416 13.053 24.6577L13.0381 24.5L12.9084 24.3866C12.8336 24.3225 12.7588 24.2584 12.7438 24.2485C12.7189 24.2288 12.7089 24.1943 12.7089 24.1647V24.1055L13.3323 24.1104L13.9556 24.1154L13.9756 24.1795L13.9955 24.2436L14.2099 24.2534C14.3296 24.2584 14.7086 24.2682 15.0477 24.2781L15.6711 24.2929L15.8306 24.0463L15.9952 23.7998H16.2046L16.1996 23.287L16.1947 22.7742L15.9204 22.6559C15.0377 22.2713 14.5191 21.8325 14.3246 21.3C14.2847 21.1915 14.2847 21.152 14.2748 20.659C14.2698 20.1708 14.2698 20.1265 14.3047 20.018C14.3745 19.7715 14.569 19.5792 14.8183 19.5151C14.9031 19.4904 15.1275 19.4904 16.3044 19.4904L17.6907 19.4953L17.8453 19.5693C18.0298 19.6581 18.1146 19.7221 18.2193 19.8602C18.339 20.018 18.3739 20.1413 18.3739 20.442C18.3739 20.871 18.344 21.2408 18.2991 21.3887C18.2342 21.5909 18.1345 21.7832 18.0098 21.9557C17.7605 22.2713 17.3067 22.5869 16.8928 22.7299L16.7731 22.7742L16.7781 23.2919L16.7831 23.8097L16.8928 23.8195L17.0025 23.8294L17.1521 24.0513L17.2967 24.2731H17.965C18.334 24.2731 18.6581 24.2781 18.688 24.283C18.7379 24.2929 18.7479 24.2879 18.7978 24.2041L18.8576 24.1154H19.4311C19.8749 24.1154 20.0045 24.1203 20.0045 24.1351C19.9896 24.1302 19.9248 24.3718 19.85 24.6479Z" fill="white"/>
<path d="M29.7836 19.0175C29.7736 18.7956 29.7536 18.4849 29.7387 18.3321C29.5242 16.0936 28.9458 14.2643 27.8487 12.3265C27.8038 12.2526 27.7639 12.1786 27.739 12.1195C27.729 12.1047 27.724 12.0899 27.719 12.08C27.8736 11.6215 28.5069 9.70343 29.0106 7.50929C29.6938 4.53117 30.1276 1.05012 28.8012 0.0048228C28.8012 0.0048228 26.5073 -0.16282 23.4354 2.8153C22.6026 3.63872 21.8397 4.53117 21.1615 5.48279L20.947 5.41376C19.7103 5.01438 18.4287 4.76784 17.1371 4.68402C16.7482 4.65444 15.297 4.65444 14.8233 4.68402C13.3921 4.7777 12.295 4.98972 11.0483 5.41869C10.9985 5.43841 10.9536 5.4532 10.9087 5.468C10.2056 4.52131 9.42264 3.63379 8.55993 2.82023C5.36342 -0.172681 2.98474 -0.00010816 2.98474 -0.00010816C1.57847 1.07971 2.0572 4.71854 2.78527 7.79527C3.264 9.83163 3.85243 11.6215 4.07185 12.2674C4.05689 12.3019 4.03694 12.3413 4.017 12.3759C2.85508 14.7031 2.22675 16.9466 2.07715 19.333C3.37869 19.1457 6.96417 18.9336 9.65203 21.7934C9.65203 21.7934 11.4273 17.1586 16.2146 17.1586C21.0019 17.1586 22.0242 21.7934 22.0242 21.7934C25.1957 19.2048 28.6117 19.2886 29.8085 19.4119C29.8035 19.3133 29.7935 19.1654 29.7836 19.0175ZM5.01435 10.4085C5.01435 10.4085 3.1493 5.79835 3.62803 3.16538C3.70782 2.72162 3.85742 2.33209 4.0918 2.03625C4.0918 2.03625 6.20618 2.24334 9.61712 5.99065C9.61712 5.99065 8.96884 6.30128 8.10115 6.96199C8.10115 6.96199 8.09616 6.96692 8.09117 6.96692C7.14868 7.68186 5.94188 8.81592 5.01435 10.4085ZM12.9283 17.2572C12.8984 17.3164 12.7488 17.3805 12.5793 17.4051C12.4097 17.4298 11.8911 17.415 11.5969 17.3805C10.5397 17.2424 9.41765 16.9219 8.59982 16.5275C8.14104 16.3056 7.81191 16.0837 7.56756 15.8421L7.42794 15.6991L7.41297 15.5118C7.38804 15.1863 7.39303 14.6735 7.43292 14.4911C7.45786 14.3383 7.51271 14.1903 7.58751 14.0572C7.62741 14.0079 7.62741 14.0079 7.80693 14.0079C8.02635 14.0079 8.21086 14.0424 8.51006 14.1361C9.12343 14.3235 10.036 14.7771 11.1481 15.4378C12.0656 15.9802 12.4097 16.2464 12.674 16.6113C12.8535 16.8381 12.9732 17.1586 12.9283 17.2572ZM24.6771 15.6252C24.6622 15.7041 24.4278 15.9407 24.1934 16.1133C23.5052 16.6113 22.2735 17.0748 21.0218 17.2967C20.3087 17.4249 19.5956 17.4446 19.3812 17.341C19.2416 17.272 19.2216 17.2178 19.2715 17.0403C19.3762 16.6705 19.7153 16.2661 20.2439 15.8865C20.5132 15.6942 21.6053 15.0384 22.1139 14.7623C22.9517 14.3087 23.6299 14.0375 24.0887 13.9734C24.2333 13.9537 24.4078 13.9487 24.4627 13.9734C24.5524 14.0079 24.6522 14.2692 24.6921 14.5848C24.712 14.7524 24.702 15.492 24.6771 15.6252ZM23.8493 6.96199L23.8393 6.95706C23.0016 6.29635 22.3732 5.98572 22.3732 5.98572C25.6695 2.23841 27.7091 2.03133 27.7091 2.03133C27.9335 2.3321 28.0781 2.71669 28.1579 3.16045C28.6216 5.79342 26.8214 10.4085 26.8214 10.4085C26.0684 9.08217 25.0561 7.90868 23.8493 6.96199Z" fill="#FFA409"/>
<path d="M28.1629 3.16037C27.7739 3.11106 25.9338 3.1012 23.8494 6.96191L23.8394 6.95698C23.0016 6.29627 22.3733 5.98564 22.3733 5.98564C25.6695 2.23834 27.7091 2.03125 27.7091 2.03125C27.9385 2.33202 28.0831 2.71661 28.1629 3.16037Z" fill="#FF9300"/>
<path d="M26.8265 10.4083C26.0685 9.07698 25.0611 7.90841 23.8494 6.96173C25.9338 3.10102 27.7689 3.11088 28.1629 3.16019C28.6267 5.79809 26.8265 10.4083 26.8265 10.4083Z" fill="#FF8300"/>
<path d="M28.2376 3.17495C28.2127 3.17002 28.1878 3.16509 28.1628 3.16016L28.2376 3.17495Z" fill="#FF8300"/>
<path d="M9.61688 5.98564C9.61688 5.98564 8.96861 6.29627 8.10091 6.95698C8.10091 6.95698 8.09592 6.96191 8.09093 6.96191C5.93167 3.09627 4.03172 3.11106 3.6228 3.16037C3.70259 2.71661 3.8522 2.32709 4.08657 2.03125C4.09156 2.03125 6.20594 2.23834 9.61688 5.98564Z" fill="#FF9300"/>
<path d="M8.09604 6.96173C7.14855 7.6816 5.94176 8.81072 5.01422 10.4083C5.01422 10.4083 3.14917 5.79809 3.6279 3.16019C4.03183 3.11088 5.93677 3.10102 8.09604 6.96173Z" fill="#FF8300"/>
<path d="M3.62788 3.16016C3.60295 3.16509 3.57303 3.17002 3.5481 3.17495L3.62788 3.16016Z" fill="#FF8300"/>
<path d="M21.7798 12.9675C21.7798 12.9675 20.184 13.0661 20.3835 11.8334C20.5829 10.6007 21.8296 10.4528 22.1787 10.5021C22.5278 10.5514 23.9241 11.0445 23.6747 12.0799C23.4254 13.1154 23.0763 12.9181 22.8768 12.9675C22.6774 13.0168 21.7798 12.9675 21.7798 12.9675Z" fill="white"/>
<path d="M10.011 12.9675C10.011 12.9675 8.4152 13.0661 8.61467 11.8334C8.81414 10.6007 10.0608 10.4528 10.4099 10.5021C10.759 10.5514 12.1553 11.0445 11.9059 12.0799C11.6566 13.1154 11.3075 12.9181 11.108 12.9675C10.9086 13.0168 10.011 12.9675 10.011 12.9675Z" fill="white"/>
</g>
<defs>
<clipPath id="clip0_1030_77379">
<rect width="32" height="32" fill="white"/>
</clipPath>
</defs>
</svg>
