<svg width="24" height="24" viewBox="0 0 24 24" fill="none" xmlns="http://www.w3.org/2000/svg">
<g clip-path="url(#clip0_1012_49657)">
<path d="M17.5728 2.11095C16.9482 2.72851 16.3759 3.39785 15.8673 4.11156L15.7065 4.05979C14.7789 3.76025 13.8177 3.57535 12.8491 3.51249C12.5573 3.4903 11.469 3.4903 11.1137 3.51249C10.0403 3.58275 9.21746 3.74176 8.28245 4.06349C8.24505 4.07828 8.21138 4.08938 8.17772 4.10047C7.65037 3.39045 7.06318 2.72482 6.41615 2.11465C9.52041 0.542998 13.152 0.354399 16.4021 1.59323C16.75 1.72266 17.0903 1.87428 17.4232 2.03699L17.5728 2.11095Z" fill="#6F767E"/>
<path d="M23.3624 16.1379C22.8911 17.4654 22.1843 18.6969 21.2679 19.7693C20.7705 20.3462 20.2207 20.875 19.6298 21.3557C18.246 22.4577 16.6303 23.2454 14.9061 23.6596C12.9987 24.1144 11.0089 24.1144 9.10151 23.6596C7.3736 23.2454 5.76164 22.4577 4.37781 21.3557C3.78688 20.875 3.23709 20.3462 2.73966 19.7693C0.102918 16.6889 -0.697456 12.4583 0.645228 8.64571C0.899552 7.93939 1.21746 7.25896 1.59894 6.61181C1.77473 6.31597 1.99165 5.98315 2.09637 5.84632C2.45542 7.3736 2.89675 8.71597 3.06131 9.20041C3.05009 9.22629 3.03513 9.25588 3.02017 9.28176C2.14873 11.0272 1.67749 12.7098 1.56529 14.4996C1.56529 14.5218 1.56154 14.5477 1.56154 14.5699C1.53162 15.1061 1.54658 15.3613 1.63635 15.6978C1.91685 16.7517 2.78081 17.9129 4.13471 19.0519C6.35257 20.9157 9.35958 22.2617 11.6373 22.4171C14.0122 22.5761 17.5167 21.2041 19.8505 19.1998C20.217 18.8781 20.5611 18.5379 20.8827 18.1755C21.1146 17.9092 21.4587 17.4506 21.4325 17.4506C21.425 17.4506 21.4325 17.4433 21.4475 17.4359C21.4587 17.4285 21.4699 17.4174 21.4624 17.41C21.4587 17.4063 21.4662 17.3952 21.4774 17.3915C21.4886 17.3878 21.4961 17.3804 21.4924 17.373C21.4886 17.3656 21.4924 17.3582 21.5073 17.3545C21.5185 17.3508 21.5223 17.3397 21.5185 17.3323C21.5148 17.3249 21.5185 17.3175 21.526 17.3175C21.5335 17.3175 21.541 17.3064 21.541 17.299C21.541 17.2916 21.5485 17.2805 21.5559 17.2805C21.5634 17.2805 21.5709 17.2731 21.5709 17.2657C21.5821 17.2362 21.6008 17.2066 21.6195 17.1807C21.6756 17.0956 21.9 16.7 21.9299 16.6334C22.1431 16.1563 22.2778 15.7311 22.3413 15.3058C22.3713 15.1024 22.39 14.7289 22.375 14.6402C22.3713 14.6254 22.3713 14.5995 22.3675 14.5588C22.36 14.4849 22.3563 14.3739 22.3488 14.263C22.3413 14.0966 22.3264 13.8636 22.3152 13.7489C22.1543 12.0701 21.7205 10.6981 20.8977 9.24478C20.864 9.18931 20.8341 9.13384 20.8154 9.08947C20.8079 9.07837 20.8042 9.06728 20.8004 9.05988C20.9164 8.71597 21.3914 7.27745 21.7691 5.63184L21.7766 5.63923L21.8327 5.71319C21.9299 5.84262 22.188 6.22721 22.3039 6.41211C22.8313 7.26265 23.2427 8.17606 23.5344 9.13015C24.2114 11.4266 24.1553 13.8747 23.3624 16.1379Z" fill="#6F767E"/>
<path d="M18.5078 11.7181C18.4966 11.7773 18.3208 11.9548 18.145 12.0842C17.6289 12.4577 16.7051 12.8054 15.7663 12.9718C15.2315 13.0679 14.6966 13.0827 14.5358 13.0051C14.4311 12.9533 14.4161 12.9126 14.4535 12.7795C14.5321 12.5021 14.7864 12.1989 15.1828 11.9141C15.3848 11.7699 16.2039 11.2781 16.5854 11.071C17.2137 10.7308 17.7224 10.5274 18.0665 10.4793C18.1749 10.4645 18.3058 10.4608 18.347 10.4793C18.4143 10.5052 18.4891 10.7012 18.519 10.9379C18.534 11.0636 18.5265 11.6183 18.5078 11.7181Z" fill="black"/>
<path d="M9.6962 12.9428C9.67376 12.9872 9.56156 13.0353 9.4344 13.0538C9.30723 13.0723 8.91827 13.0612 8.6976 13.0353C7.90471 12.9317 7.06319 12.6914 6.44982 12.3955C6.10573 12.2291 5.85888 12.0627 5.67562 11.8815L5.5709 11.7743L5.55968 11.6337C5.54098 11.3897 5.54472 11.0051 5.57464 10.8683C5.59334 10.7536 5.63448 10.6427 5.69058 10.5428C5.7205 10.5059 5.7205 10.5059 5.85515 10.5059C6.01971 10.5059 6.15809 10.5317 6.38249 10.602C6.84252 10.7425 7.52696 11.0827 8.361 11.5783C9.04917 11.9851 9.30723 12.1848 9.50546 12.4584C9.6401 12.6285 9.72986 12.8689 9.6962 12.9428Z" fill="black"/>
<path d="M14.9921 18.0896C14.9921 18.1007 14.9473 18.2782 14.8912 18.489C14.8351 18.6998 14.7902 18.8699 14.7902 18.8773C14.749 18.881 14.7116 18.8847 14.6705 18.881H14.5508L14.3862 19.2656C14.2965 19.4764 14.2142 19.6723 14.203 19.7019L14.1805 19.7537L14.102 19.628L14.0235 19.5022V18.4779L13.9935 18.4853C13.93 18.5001 13.4774 18.5593 13.2792 18.5777C12.4601 18.6591 11.6373 18.6406 10.8219 18.526C10.691 18.5075 10.5788 18.4927 10.5751 18.4964C10.5714 18.5001 10.5751 18.7368 10.5826 19.0289L10.5938 19.554L10.5302 19.6502C10.4966 19.7019 10.4629 19.7463 10.4629 19.75C10.4517 19.7611 10.4143 19.7019 10.3283 19.5318C10.2348 19.3543 10.1674 19.1657 10.1188 18.9697L10.0926 18.8625L9.97669 18.8699L9.86075 18.881L9.83082 18.7442C9.81586 18.6702 9.79716 18.5556 9.78968 18.4927L9.77847 18.3744L9.68122 18.2893C9.62512 18.2412 9.56902 18.1931 9.5578 18.1858C9.5391 18.171 9.53162 18.1451 9.53162 18.1229V18.0785L9.99913 18.0822L10.4666 18.0859L10.4816 18.134L10.4966 18.1821L10.6574 18.1895C10.7471 18.1932 11.0314 18.2005 11.2857 18.2079L11.7532 18.219L11.8729 18.0341L11.9963 17.8492H12.1534L12.1497 17.4646L12.1459 17.0801L11.9402 16.9913C11.2782 16.7029 10.8893 16.3737 10.7434 15.9744C10.7135 15.893 10.7135 15.8634 10.706 15.4936C10.7023 15.1275 10.7023 15.0942 10.7284 15.0129C10.7808 14.828 10.9267 14.6838 11.1137 14.6357C11.1773 14.6172 11.3456 14.6172 12.2282 14.6172L13.268 14.6209L13.3839 14.6764C13.5223 14.7429 13.5859 14.791 13.6644 14.8945C13.7542 15.0129 13.7804 15.1053 13.7804 15.3309C13.7804 15.6526 13.7579 15.93 13.7243 16.0409C13.6756 16.1925 13.6008 16.3368 13.5073 16.4662C13.3203 16.7029 12.98 16.9395 12.6695 17.0468L12.5798 17.0801L12.5835 17.4683L12.5873 17.8566L12.6695 17.864L12.7518 17.8714L12.864 18.0378L12.9725 18.2042H13.4737C13.7504 18.2042 13.9935 18.2079 14.016 18.2116C14.0534 18.219 14.0609 18.2153 14.0983 18.1525L14.1431 18.0859H14.5732C14.8949 18.0711 14.9921 18.0785 14.9921 18.0896Z" fill="black"/>
<path d="M13.0174 19.1513C12.9463 19.1919 12.8977 19.2104 12.8865 19.203C12.8752 19.1993 12.8229 19.155 12.7668 19.1143L12.6658 19.0329L12.5611 19.1439C12.3329 19.3879 12.3255 19.399 12.2581 19.4027C12.1534 19.4138 12.131 19.3953 12.0038 19.2067C11.9365 19.1106 11.8841 19.0292 11.8841 19.0292C11.8841 19.0292 11.8355 19.0218 11.7794 19.0181L11.6747 19.007L11.6261 19.1069L11.5774 19.2067L11.4914 19.1808C11.4241 19.1586 11.3568 19.1328 11.2932 19.1032L11.181 19.0477V18.8369L12.1759 18.8406L13.1707 18.8443L13.1745 18.9442C13.1782 19.0625 13.1819 19.0588 13.0174 19.1513Z" fill="black"/>
<path d="M22.3675 14.6395C22.3638 14.6247 22.3638 14.5988 22.36 14.5581C21.4624 14.462 18.9005 14.4028 16.5218 16.3443C16.5218 16.3443 15.7551 12.8682 12.1646 12.8682C8.57416 12.8682 7.2427 16.3443 7.2427 16.3443C5.23054 14.2031 2.53769 14.3585 1.56528 14.499C1.56528 14.5212 1.56154 14.5471 1.56154 14.5692C1.53161 15.1055 1.54657 15.3606 1.63634 15.6971C1.91684 16.7511 2.7808 17.9122 4.1347 19.0512C6.35256 20.915 9.35957 22.2611 11.6373 22.4164C14.0122 22.5754 17.5167 21.2034 19.8505 19.1991C20.217 18.8774 20.5611 18.5372 20.8827 18.1748C21.1146 17.9085 21.4587 17.45 21.4325 17.45C21.425 17.45 21.4325 17.4426 21.4475 17.4352C21.4587 17.4278 21.4699 17.4167 21.4624 17.4093C21.4587 17.4056 21.4662 17.3945 21.4774 17.3908C21.4886 17.3871 21.4961 17.3797 21.4923 17.3723C21.4886 17.3649 21.4923 17.3575 21.5073 17.3538C21.5185 17.3501 21.5223 17.339 21.5185 17.3316C21.5148 17.3243 21.5185 17.3169 21.526 17.3169C21.5335 17.3169 21.541 17.3058 21.541 17.2984C21.541 17.291 21.5484 17.2799 21.5559 17.2799C21.5634 17.2799 21.5709 17.2725 21.5709 17.2651C21.5821 17.2355 21.6008 17.2059 21.6195 17.18C21.6756 17.095 21.9 16.6993 21.9299 16.6327C22.1431 16.1557 22.2778 15.7304 22.3413 15.3051C22.3638 15.1018 22.3825 14.7283 22.3675 14.6395ZM13.0174 19.1511C12.9463 19.1917 12.8977 19.2102 12.8865 19.2028C12.8752 19.1991 12.8229 19.1548 12.7668 19.1141L12.6658 19.0327L12.5611 19.1437C12.3329 19.3877 12.3254 19.3988 12.2581 19.4025C12.1534 19.4136 12.131 19.3951 12.0038 19.2065C11.9365 19.1104 11.8841 19.029 11.8841 19.029C11.8841 19.029 11.8355 19.0216 11.7794 19.0179L11.6747 19.0068L11.6261 19.1067L11.5774 19.2065L11.4914 19.1806C11.4241 19.1585 11.3568 19.1326 11.2932 19.103L11.181 19.0475V18.8367L12.1758 18.8404L13.1707 18.8441L13.1744 18.944C13.1782 19.0623 13.1819 19.0586 13.0174 19.1511ZM14.8874 18.4854C14.8313 18.6962 14.7864 18.8663 14.7864 18.8737C14.7453 18.8774 14.7079 18.8811 14.6667 18.8774H14.547L14.3862 19.2657C14.2965 19.4765 14.2142 19.6725 14.203 19.7021L14.1805 19.7538L14.102 19.6281L14.0234 19.5024V18.478L13.9935 18.4854C13.9299 18.5002 13.4774 18.5594 13.2792 18.5779C12.4601 18.6592 11.6373 18.6407 10.8219 18.5261C10.691 18.5076 10.5788 18.4928 10.5751 18.4965C10.5714 18.5002 10.5751 18.7369 10.5826 19.029L10.5938 19.5541L10.5302 19.6503C10.4966 19.7021 10.4629 19.7464 10.4629 19.7501C10.4517 19.7612 10.4143 19.7021 10.3283 19.532C10.2347 19.3545 10.1674 19.1659 10.1188 18.9699L10.0926 18.8626L9.97668 18.87L9.86074 18.8811L9.83082 18.7443C9.81586 18.6703 9.79716 18.5557 9.78968 18.4928L9.77846 18.3745L9.68122 18.2894C9.62512 18.2414 9.56902 18.1933 9.5578 18.1859C9.5391 18.1711 9.53161 18.1452 9.53161 18.123V18.0786L9.99912 18.0823L10.4666 18.086L10.4816 18.1341L10.4966 18.1822L10.6574 18.1896C10.7471 18.1933 11.0314 18.2007 11.2857 18.2081L11.7532 18.2192L11.8729 18.0343L11.9963 17.8494H12.1534L12.1497 17.4648L12.1459 17.0802L11.9402 16.9914C11.2782 16.703 10.8893 16.3739 10.7434 15.9745C10.7135 15.8931 10.7135 15.8635 10.706 15.4937C10.7023 15.1276 10.7023 15.0944 10.7284 15.013C10.7808 14.8281 10.9267 14.6839 11.1137 14.6358C11.1772 14.6173 11.3455 14.6173 12.2282 14.6173L13.2679 14.621L13.3839 14.6765C13.5223 14.743 13.5858 14.7911 13.6644 14.8947C13.7541 15.013 13.7803 15.1055 13.7803 15.331C13.7803 15.6528 13.7579 15.9301 13.7242 16.041C13.6756 16.1927 13.6008 16.3369 13.5073 16.4663C13.3203 16.703 12.98 16.9397 12.6695 17.0469L12.5798 17.0802L12.5835 17.4685L12.5873 17.8568L12.6695 17.8642L12.7518 17.8716L12.864 18.038L12.9725 18.2044H13.4736C13.7504 18.2044 13.9935 18.2081 14.016 18.2118C14.0534 18.2192 14.0608 18.2155 14.0982 18.1526L14.1431 18.086H14.5732C14.9061 18.086 15.0033 18.0897 15.0033 18.1008C14.9921 18.0971 14.9435 18.2783 14.8874 18.4854Z" fill="white"/>
<path d="M22.3376 14.2626C22.3301 14.0962 22.3152 13.8632 22.3039 13.7486C22.1431 12.0697 21.7093 10.6977 20.8865 9.24442C20.8528 9.18895 20.8229 9.13348 20.8042 9.08911C20.7967 9.07801 20.793 9.06692 20.7892 9.05952C20.9052 8.71561 21.3801 7.27709 21.7579 5.63148C22.2703 3.39789 22.5957 0.787104 21.6008 0.00312882C21.6008 0.00312882 19.8804 -0.122603 17.5765 2.11099C16.9519 2.72855 16.3797 3.39789 15.871 4.1116L15.7102 4.05983C14.7827 3.76029 13.8215 3.57539 12.8528 3.51253C12.5611 3.49034 11.4727 3.49034 11.1174 3.51253C10.044 3.58279 9.22119 3.7418 8.28618 4.06353C8.24878 4.07832 8.21512 4.08942 8.18145 4.10051C7.65411 3.39049 7.06692 2.72485 6.41989 2.11469C4.0225 -0.129999 2.23849 -0.000569401 2.23849 -0.000569401C1.18379 0.809292 1.54284 3.53841 2.08889 5.84596C2.44794 7.37324 2.88926 8.71561 3.05383 9.20005C3.04261 9.22593 3.02765 9.25552 3.01269 9.2814C2.14125 11.0269 1.67 12.7094 1.5578 14.4993C2.53396 14.3588 5.22306 14.1997 7.23896 16.3446C7.23896 16.3446 8.57042 12.8685 12.1609 12.8685C15.7513 12.8685 16.5181 16.3446 16.5181 16.3446C18.8967 14.4031 21.4587 14.466 22.3563 14.5584C22.3526 14.4845 22.3451 14.3735 22.3376 14.2626ZM3.7607 7.8059C3.7607 7.8059 2.36191 4.34828 2.72096 2.37354C2.7808 2.04073 2.893 1.74858 3.06879 1.5267C3.06879 1.5267 4.65457 1.68202 7.21278 4.4925C7.21278 4.4925 6.72657 4.72547 6.0758 5.221C6.0758 5.221 6.07206 5.2247 6.06832 5.2247C5.36145 5.76091 4.45635 6.61145 3.7607 7.8059ZM9.69618 12.9424C9.67374 12.9868 9.56154 13.0349 9.43438 13.0534C9.30721 13.0718 8.91825 13.0608 8.69759 13.0349C7.90469 12.9313 7.06318 12.691 6.44981 12.3951C6.10572 12.2287 5.85887 12.0623 5.67561 11.8811L5.57089 11.7739L5.55967 11.6333C5.54097 11.3893 5.54471 11.0047 5.57463 10.8678C5.59333 10.7532 5.63447 10.6423 5.69057 10.5424C5.72049 10.5054 5.72049 10.5054 5.85514 10.5054C6.0197 10.5054 6.15808 10.5313 6.38248 10.6016C6.84251 10.7421 7.52695 11.0823 8.36098 11.5779C9.04915 11.9846 9.30722 12.1843 9.50544 12.458C9.64008 12.6281 9.72984 12.8685 9.69618 12.9424ZM18.5078 11.7184C18.4966 11.7776 18.3208 11.9551 18.145 12.0845C17.6289 12.458 16.7051 12.8056 15.7663 12.972C15.2315 13.0682 14.6966 13.0829 14.5358 13.0053C14.4311 12.9535 14.4161 12.9128 14.4535 12.7797C14.5321 12.5024 14.7864 12.1991 15.1829 11.9144C15.3848 11.7702 16.2039 11.2783 16.5854 11.0712C17.2137 10.731 17.7224 10.5276 18.0664 10.4796C18.1749 10.4648 18.3058 10.4611 18.347 10.4796C18.4143 10.5054 18.4891 10.7014 18.519 10.9381C18.534 11.0638 18.5265 11.6185 18.5078 11.7184ZM17.8869 5.221L17.8794 5.2173C17.2511 4.72177 16.7799 4.4888 16.7799 4.4888C19.252 1.67832 20.7817 1.52301 20.7817 1.52301C20.95 1.74858 21.0585 2.03703 21.1183 2.36985C21.4662 4.34458 20.116 7.8059 20.116 7.8059C19.5513 6.81114 18.792 5.93102 17.8869 5.221Z" fill="#A9A9A9"/>
<path d="M21.1221 2.37028C20.8304 2.3333 19.4503 2.3259 17.8869 5.22143L17.8795 5.21773C17.2511 4.7222 16.7799 4.48923 16.7799 4.48923C19.2521 1.67875 20.7817 1.52344 20.7817 1.52344C20.9538 1.74902 21.0622 2.03746 21.1221 2.37028Z" fill="#DFDFDF"/>
<path d="M20.1197 7.80668C19.5513 6.80822 18.7958 5.9318 17.8869 5.22178C19.4503 2.32625 20.8266 2.33365 21.1221 2.37063C21.4699 4.34906 20.1197 7.80668 20.1197 7.80668Z" fill="white"/>
<path d="M21.1782 2.38121C21.1595 2.37751 21.1408 2.37382 21.1221 2.37012L21.1782 2.38121Z" fill="white"/>
<path d="M7.21278 4.48923C7.21278 4.48923 6.72658 4.7222 6.0758 5.21773C6.0758 5.21773 6.07206 5.22143 6.06832 5.22143C4.44887 2.3222 3.02391 2.3333 2.71722 2.37028C2.77707 2.03746 2.88927 1.74532 3.06505 1.52344C3.06879 1.52344 4.65458 1.67875 7.21278 4.48923Z" fill="#DFDFDF"/>
<path d="M6.07206 5.22178C5.36144 5.76169 4.45635 6.60853 3.7607 7.80668C3.7607 7.80668 2.36191 4.34906 2.72095 2.37063C3.0239 2.33365 4.45261 2.32625 6.07206 5.22178Z" fill="white"/>
<path d="M2.72096 2.37012C2.70226 2.37382 2.67982 2.37751 2.66112 2.38121L2.72096 2.37012Z" fill="white"/>
<path d="M16.3348 9.7251C16.3348 9.7251 15.138 9.79906 15.2876 8.87456C15.4372 7.95007 16.3722 7.83913 16.634 7.87611C16.8958 7.91309 17.943 8.28289 17.756 9.05946C17.569 9.83604 17.3072 9.68812 17.1576 9.7251C17.008 9.76208 16.3348 9.7251 16.3348 9.7251Z" fill="white"/>
<path d="M7.50825 9.7251C7.50825 9.7251 6.31143 9.79906 6.46103 8.87456C6.61063 7.95007 7.54565 7.83913 7.80745 7.87611C8.06926 7.91309 9.11647 8.28289 8.92947 9.05946C8.74247 9.83604 8.48066 9.68812 8.33106 9.7251C8.18146 9.76208 7.50825 9.7251 7.50825 9.7251Z" fill="white"/>
</g>
<defs>
<clipPath id="clip0_1012_49657">
<rect width="24" height="24" fill="white"/>
</clipPath>
</defs>
</svg>
