<svg width="32" height="28" viewBox="0 0 32 28" fill="none" xmlns="http://www.w3.org/2000/svg">
<g clip-path="url(#clip0_1030_77346)">
<path fill-rule="evenodd" clip-rule="evenodd" d="M5.85871 0.13752L0.0239879 12.4652C0.00178505 12.5111 -0.00525087 12.5629 0.00390901 12.613C0.0130689 12.6632 0.037944 12.7091 0.0748967 12.744L15.8331 27.9327C15.8778 27.9759 15.9375 28 15.9995 28C16.0615 28 16.1211 27.9759 16.1659 27.9327L31.9241 12.745C31.961 12.71 31.9859 12.6641 31.995 12.614C32.0042 12.5638 31.9972 12.512 31.975 12.4662L26.1402 0.138468C26.1214 0.0970663 26.0911 0.0619938 26.053 0.0374422C26.0149 0.0128907 25.9706 -0.00010156 25.9253 1.83516e-05H6.07554C6.03007 -0.000550773 5.98539 0.0121285 5.94692 0.0365266C5.90844 0.0609247 5.87781 0.0959994 5.85871 0.13752V0.13752V0.13752Z" fill="#50AF95"/>
<path fill-rule="evenodd" clip-rule="evenodd" d="M18.0245 13.7316C17.9114 13.7402 17.3269 13.7753 16.023 13.7753C14.986 13.7753 14.2497 13.744 13.9914 13.7316C9.98372 13.5543 6.99236 12.8526 6.99236 12.0124C6.99236 11.1722 9.98372 10.4714 13.9914 10.2913V13.0328C14.2535 13.0517 15.0039 13.0963 16.0409 13.0963C17.2854 13.0963 17.9085 13.0441 18.0207 13.0337V10.2932C22.0199 10.4724 25.0047 11.1741 25.0047 12.0124C25.0047 12.8507 22.0208 13.5524 18.0207 13.7307L18.0245 13.7316ZM18.0245 10.0096V7.55641H23.6056V3.81543H8.41026V7.55641H13.9904V10.0087C9.45484 10.2182 6.04395 11.122 6.04395 12.2049C6.04395 13.2878 9.45484 14.1906 13.9904 14.4011V22.2624H18.0235V14.3983C22.5488 14.1887 25.954 13.2859 25.954 12.204C25.954 11.122 22.5516 10.2192 18.0235 10.0087L18.0245 10.0096Z" fill="white"/>
</g>
<defs>
<clipPath id="clip0_1030_77346">
<rect width="32" height="28" fill="white"/>
</clipPath>
</defs>
</svg>
