<svg width="27" height="24" viewBox="0 0 27 24" fill="none" xmlns="http://www.w3.org/2000/svg">
<path fill-rule="evenodd" clip-rule="evenodd" d="M4.94329 0.117874L0.0202398 10.6845C0.00150614 10.7238 -0.00443042 10.7682 0.00329823 10.8112C0.0110269 10.8542 0.0320153 10.8935 0.0631941 10.9234L13.3592 23.9423C13.3969 23.9793 13.4472 24 13.4996 24C13.5519 24 13.6022 23.9793 13.64 23.9423L26.9359 10.9243C26.9671 10.8943 26.9881 10.855 26.9958 10.812C27.0035 10.769 26.9976 10.7246 26.9789 10.6853L22.0558 0.118687C22.0399 0.0831997 22.0144 0.0531376 21.9822 0.0320934C21.9501 0.0110491 21.9127 -8.70516e-05 21.8745 1.57299e-05H5.12624C5.08787 -0.000472091 5.05018 0.0103958 5.01771 0.0313085C4.98525 0.0522212 4.9594 0.0822852 4.94329 0.117874ZM15.2081 11.7696C15.1127 11.7769 14.6195 11.807 13.5194 11.807C12.6444 11.807 12.0232 11.7802 11.8052 11.7696C8.42374 11.6176 5.89977 11.0161 5.89977 10.296C5.89977 9.57584 8.42374 8.97517 11.8052 8.82073V11.1706C12.0263 11.1868 12.6595 11.225 13.5345 11.225C14.5845 11.225 15.1103 11.1803 15.205 11.1714V8.82236C18.5793 8.97598 21.0977 9.57747 21.0977 10.296C21.0977 11.0145 18.58 11.616 15.205 11.7688L15.2081 11.7696ZM15.2081 8.57933V6.47658H19.9172V3.27002H7.09613V6.47658H11.8044V8.57852C7.97749 8.75815 5.09955 9.53276 5.09955 10.461C5.09955 11.3892 7.97749 12.163 11.8044 12.3435V19.0817H15.2073V12.341C19.0255 12.1614 21.8987 11.3876 21.8987 10.4602C21.8987 9.53276 19.0279 8.75896 15.2073 8.57852L15.2081 8.57933Z" fill="#6F767E"/>
</svg>
