<svg width="32" height="26" viewBox="0 0 32 26" fill="none" xmlns="http://www.w3.org/2000/svg">
<path d="M27.3123 0H31.9373L22.3123 9.35019C18.8267 12.7345 13.1755 12.7345 9.68734 9.35019L0.0585938 0H4.68734L11.9998 7.10278C13.0653 8.13304 14.5011 8.71058 15.997 8.71058C17.4929 8.71058 18.9288 8.13304 19.9942 7.10278L27.3123 0Z" fill="white"/>
<path d="M4.62813 25.9998H0L9.6875 16.5919C13.1731 13.2076 18.8244 13.2076 22.3125 16.5919L32 25.9998H27.375L20 18.8393C18.9346 17.8091 17.4987 17.2315 16.0028 17.2315C14.5069 17.2315 13.0711 17.8091 12.0056 18.8393L4.62813 25.9998Z" fill="white"/>
</svg>
